M48
;GenerationSoftware,Autodesk,EAGLE,9.6.2*%
;CreationDate,2024-12-20T12:32:33Z*%
FMAT,2
ICI,OFF
METRIC,TZ,000.000
T4C0.305
T3C0.889
T2C1.400
T1C3.175
%
G90
M71
T1
X68580Y5080
X68580Y91440
X5080Y91440
X5080Y5080
T2
X44423Y81494
X44423Y76494
X56923Y76494
X56923Y81494
X55880Y17780
X55880Y15240
X26035Y22225
X26035Y17145
X26035Y19685
X16610Y81240
X16610Y76240
X29110Y76240
X29110Y81240
T3
X32580Y31470
X32580Y34010
X35120Y31470
X35120Y34010
X37660Y31470
X37660Y34010
X40200Y31470
X40200Y34010
X42740Y31470
X42740Y34010
X45280Y31470
X45280Y34010
X47820Y31470
X47820Y34010
X50360Y31470
X50360Y34010
X52900Y31470
X52900Y34010
X55440Y31470
X55440Y34010
X57980Y31470
X57980Y34010
X14800Y56870
X14800Y59410
X17340Y56870
X17340Y59410
X19880Y56870
X19880Y59410
X22420Y56870
X22420Y59410
X24960Y56870
X24960Y59410
X27500Y56870
X27500Y59410
X30040Y56870
X30040Y59410
X32580Y56870
X32580Y59410
X35120Y56870
X35120Y59410
X37660Y56870
X37660Y59410
X40200Y56870
X40200Y59410
X42740Y56870
X42740Y59410
X45280Y56870
X45280Y59410
X47820Y56870
X47820Y59410
X50360Y56870
X50360Y59410
X52900Y56870
X52900Y59410
X55440Y56870
X55440Y59410
X57980Y56870
X57980Y59410
X30040Y34010
X30040Y31470
X27500Y34010
X27500Y31470
X24960Y34010
X24960Y31470
X22420Y34010
X22420Y31470
X19880Y34010
X19880Y31470
X17340Y34010
X17340Y31470
X14800Y34010
X14800Y31470
T4
X22860Y12700
X48260Y15240
X66294Y76327
M30