G04 EAGLE Gerber RS-274X export*
G75*
%MOMM*%
%FSLAX34Y34*%
%LPD*%
%INCopper Layer 2*%
%IPPOS*%
%AMOC8*
5,1,8,0,0,1.08239X$1,22.5*%
G01*
%ADD10C,1.244600*%
%ADD11C,1.960000*%
%ADD12C,4.191000*%
%ADD13C,0.609600*%

G36*
X732908Y2556D02*
X732908Y2556D01*
X733027Y2563D01*
X733065Y2576D01*
X733106Y2581D01*
X733216Y2624D01*
X733329Y2661D01*
X733364Y2683D01*
X733401Y2698D01*
X733497Y2767D01*
X733598Y2831D01*
X733626Y2861D01*
X733659Y2884D01*
X733735Y2976D01*
X733816Y3063D01*
X733836Y3098D01*
X733861Y3129D01*
X733912Y3237D01*
X733970Y3341D01*
X733980Y3381D01*
X733997Y3417D01*
X734019Y3534D01*
X734049Y3649D01*
X734053Y3709D01*
X734057Y3729D01*
X734055Y3750D01*
X734059Y3810D01*
X734059Y961390D01*
X734044Y961508D01*
X734037Y961627D01*
X734024Y961665D01*
X734019Y961706D01*
X733976Y961816D01*
X733939Y961929D01*
X733917Y961964D01*
X733902Y962001D01*
X733833Y962097D01*
X733769Y962198D01*
X733739Y962226D01*
X733716Y962259D01*
X733624Y962335D01*
X733537Y962416D01*
X733502Y962436D01*
X733471Y962461D01*
X733363Y962512D01*
X733259Y962570D01*
X733219Y962580D01*
X733183Y962597D01*
X733066Y962619D01*
X732951Y962649D01*
X732891Y962653D01*
X732871Y962657D01*
X732850Y962655D01*
X732790Y962659D01*
X3810Y962659D01*
X3692Y962644D01*
X3573Y962637D01*
X3535Y962624D01*
X3494Y962619D01*
X3384Y962576D01*
X3271Y962539D01*
X3236Y962517D01*
X3199Y962502D01*
X3103Y962433D01*
X3002Y962369D01*
X2974Y962339D01*
X2941Y962316D01*
X2865Y962224D01*
X2784Y962137D01*
X2764Y962102D01*
X2739Y962071D01*
X2688Y961963D01*
X2630Y961859D01*
X2620Y961819D01*
X2603Y961783D01*
X2581Y961666D01*
X2551Y961551D01*
X2547Y961491D01*
X2543Y961471D01*
X2545Y961450D01*
X2541Y961390D01*
X2541Y3810D01*
X2556Y3692D01*
X2563Y3573D01*
X2576Y3535D01*
X2581Y3494D01*
X2624Y3384D01*
X2661Y3271D01*
X2683Y3236D01*
X2698Y3199D01*
X2767Y3103D01*
X2831Y3002D01*
X2861Y2974D01*
X2884Y2941D01*
X2976Y2865D01*
X3063Y2784D01*
X3098Y2764D01*
X3129Y2739D01*
X3237Y2688D01*
X3341Y2630D01*
X3381Y2620D01*
X3417Y2603D01*
X3534Y2581D01*
X3649Y2551D01*
X3709Y2547D01*
X3729Y2543D01*
X3750Y2545D01*
X3810Y2541D01*
X732790Y2541D01*
X732908Y2556D01*
G37*
%LPC*%
G36*
X681126Y890904D02*
X681126Y890904D01*
X672491Y894481D01*
X665881Y901091D01*
X662304Y909726D01*
X662304Y919074D01*
X665881Y927709D01*
X672491Y934319D01*
X681126Y937896D01*
X690474Y937896D01*
X699109Y934319D01*
X705719Y927709D01*
X709296Y919074D01*
X709296Y909726D01*
X705719Y901091D01*
X699109Y894481D01*
X690474Y890904D01*
X681126Y890904D01*
G37*
%LPD*%
%LPC*%
G36*
X46126Y890904D02*
X46126Y890904D01*
X37491Y894481D01*
X30881Y901091D01*
X27304Y909726D01*
X27304Y919074D01*
X30881Y927709D01*
X37491Y934319D01*
X46126Y937896D01*
X55474Y937896D01*
X64109Y934319D01*
X70719Y927709D01*
X74296Y919074D01*
X74296Y909726D01*
X70719Y901091D01*
X64109Y894481D01*
X55474Y890904D01*
X46126Y890904D01*
G37*
%LPD*%
%LPC*%
G36*
X46126Y27304D02*
X46126Y27304D01*
X37491Y30881D01*
X30881Y37491D01*
X27304Y46126D01*
X27304Y55474D01*
X30881Y64109D01*
X37491Y70719D01*
X46126Y74296D01*
X55474Y74296D01*
X64109Y70719D01*
X70719Y64109D01*
X74296Y55474D01*
X74296Y46126D01*
X70719Y37491D01*
X64109Y30881D01*
X55474Y27304D01*
X46126Y27304D01*
G37*
%LPD*%
%LPC*%
G36*
X681126Y27304D02*
X681126Y27304D01*
X672491Y30881D01*
X665881Y37491D01*
X662304Y46126D01*
X662304Y55474D01*
X665881Y64109D01*
X672491Y70719D01*
X681126Y74296D01*
X690474Y74296D01*
X699109Y70719D01*
X705719Y64109D01*
X709296Y55474D01*
X709296Y46126D01*
X705719Y37491D01*
X699109Y30881D01*
X690474Y27304D01*
X681126Y27304D01*
G37*
%LPD*%
%LPC*%
G36*
X257895Y159109D02*
X257895Y159109D01*
X253360Y160988D01*
X249888Y164460D01*
X248009Y168995D01*
X248009Y173905D01*
X249888Y178440D01*
X253360Y181912D01*
X255932Y182977D01*
X256052Y183046D01*
X256175Y183111D01*
X256190Y183125D01*
X256208Y183135D01*
X256308Y183232D01*
X256411Y183325D01*
X256422Y183342D01*
X256436Y183356D01*
X256509Y183474D01*
X256585Y183591D01*
X256592Y183610D01*
X256603Y183627D01*
X256643Y183760D01*
X256689Y183892D01*
X256690Y183912D01*
X256696Y183931D01*
X256703Y184070D01*
X256714Y184209D01*
X256710Y184229D01*
X256711Y184249D01*
X256683Y184385D01*
X256659Y184522D01*
X256651Y184540D01*
X256647Y184560D01*
X256586Y184686D01*
X256529Y184812D01*
X256516Y184828D01*
X256507Y184846D01*
X256417Y184952D01*
X256330Y185060D01*
X256314Y185073D01*
X256301Y185088D01*
X256187Y185168D01*
X256076Y185252D01*
X256051Y185264D01*
X256041Y185271D01*
X256022Y185278D01*
X255932Y185323D01*
X253360Y186388D01*
X249888Y189860D01*
X248009Y194395D01*
X248009Y199305D01*
X249888Y203840D01*
X253360Y207312D01*
X255909Y208368D01*
X255935Y208383D01*
X255963Y208392D01*
X256073Y208461D01*
X256185Y208525D01*
X256206Y208546D01*
X256232Y208562D01*
X256320Y208656D01*
X256413Y208747D01*
X256429Y208772D01*
X256450Y208794D01*
X256512Y208907D01*
X256580Y209018D01*
X256588Y209046D01*
X256603Y209073D01*
X256635Y209198D01*
X256673Y209322D01*
X256675Y209352D01*
X256682Y209381D01*
X256682Y209510D01*
X256688Y209639D01*
X256682Y209669D01*
X256682Y209699D01*
X256650Y209824D01*
X256624Y209951D01*
X256611Y209978D01*
X256604Y210007D01*
X256541Y210120D01*
X256484Y210237D01*
X256465Y210259D01*
X256451Y210286D01*
X256362Y210380D01*
X256278Y210479D01*
X256253Y210496D01*
X256233Y210518D01*
X256124Y210587D01*
X256018Y210662D01*
X255990Y210672D01*
X255965Y210688D01*
X255815Y210748D01*
X255613Y210813D01*
X253882Y211695D01*
X252311Y212837D01*
X250937Y214211D01*
X249795Y215782D01*
X248913Y217513D01*
X248313Y219360D01*
X248258Y219711D01*
X259080Y219711D01*
X259198Y219726D01*
X259317Y219733D01*
X259355Y219746D01*
X259395Y219751D01*
X259506Y219794D01*
X259619Y219831D01*
X259653Y219853D01*
X259691Y219868D01*
X259787Y219938D01*
X259888Y220001D01*
X259916Y220031D01*
X259948Y220054D01*
X260024Y220146D01*
X260106Y220233D01*
X260125Y220268D01*
X260151Y220299D01*
X260202Y220407D01*
X260259Y220511D01*
X260270Y220551D01*
X260287Y220587D01*
X260309Y220704D01*
X260339Y220819D01*
X260343Y220880D01*
X260347Y220900D01*
X260345Y220920D01*
X260349Y220980D01*
X260349Y222251D01*
X260351Y222251D01*
X260351Y220980D01*
X260366Y220862D01*
X260373Y220743D01*
X260386Y220705D01*
X260391Y220664D01*
X260435Y220554D01*
X260471Y220441D01*
X260493Y220406D01*
X260508Y220369D01*
X260578Y220273D01*
X260641Y220172D01*
X260671Y220144D01*
X260695Y220111D01*
X260786Y220036D01*
X260873Y219954D01*
X260908Y219934D01*
X260940Y219909D01*
X261047Y219858D01*
X261152Y219800D01*
X261191Y219790D01*
X261227Y219773D01*
X261344Y219751D01*
X261459Y219721D01*
X261520Y219717D01*
X261540Y219713D01*
X261560Y219715D01*
X261620Y219711D01*
X272442Y219711D01*
X272387Y219360D01*
X271787Y217513D01*
X270905Y215782D01*
X269763Y214211D01*
X268389Y212837D01*
X266818Y211695D01*
X265087Y210813D01*
X264885Y210748D01*
X264858Y210735D01*
X264829Y210728D01*
X264714Y210667D01*
X264597Y210612D01*
X264574Y210593D01*
X264548Y210579D01*
X264452Y210492D01*
X264352Y210410D01*
X264334Y210385D01*
X264312Y210365D01*
X264241Y210257D01*
X264165Y210152D01*
X264154Y210125D01*
X264138Y210100D01*
X264095Y209977D01*
X264048Y209857D01*
X264044Y209827D01*
X264034Y209799D01*
X264024Y209670D01*
X264008Y209541D01*
X264011Y209512D01*
X264009Y209482D01*
X264031Y209354D01*
X264047Y209226D01*
X264058Y209198D01*
X264063Y209168D01*
X264117Y209051D01*
X264164Y208930D01*
X264182Y208906D01*
X264194Y208878D01*
X264275Y208778D01*
X264351Y208672D01*
X264374Y208653D01*
X264393Y208630D01*
X264496Y208552D01*
X264596Y208470D01*
X264623Y208457D01*
X264647Y208439D01*
X264791Y208368D01*
X267340Y207312D01*
X270812Y203840D01*
X272691Y199305D01*
X272691Y194395D01*
X270812Y189860D01*
X267340Y186388D01*
X264768Y185323D01*
X264648Y185254D01*
X264525Y185189D01*
X264510Y185175D01*
X264492Y185165D01*
X264392Y185068D01*
X264289Y184975D01*
X264278Y184958D01*
X264264Y184944D01*
X264191Y184825D01*
X264115Y184709D01*
X264108Y184690D01*
X264097Y184673D01*
X264057Y184540D01*
X264011Y184408D01*
X264010Y184388D01*
X264004Y184369D01*
X263997Y184230D01*
X263986Y184091D01*
X263990Y184071D01*
X263989Y184051D01*
X264017Y183915D01*
X264041Y183778D01*
X264049Y183759D01*
X264053Y183740D01*
X264114Y183614D01*
X264171Y183488D01*
X264184Y183472D01*
X264193Y183454D01*
X264283Y183348D01*
X264370Y183240D01*
X264386Y183227D01*
X264399Y183212D01*
X264513Y183132D01*
X264624Y183048D01*
X264649Y183036D01*
X264659Y183029D01*
X264678Y183022D01*
X264768Y182977D01*
X267340Y181912D01*
X270812Y178440D01*
X272691Y173905D01*
X272691Y168995D01*
X270812Y164460D01*
X267340Y160988D01*
X262805Y159109D01*
X257895Y159109D01*
G37*
%LPD*%
%LPC*%
G36*
X558799Y152399D02*
X558799Y152399D01*
X558799Y153670D01*
X558784Y153788D01*
X558777Y153907D01*
X558764Y153945D01*
X558759Y153985D01*
X558715Y154096D01*
X558679Y154209D01*
X558657Y154244D01*
X558642Y154281D01*
X558572Y154377D01*
X558509Y154478D01*
X558479Y154506D01*
X558455Y154539D01*
X558364Y154614D01*
X558277Y154696D01*
X558242Y154716D01*
X558210Y154741D01*
X558103Y154792D01*
X557998Y154850D01*
X557959Y154860D01*
X557923Y154877D01*
X557806Y154899D01*
X557691Y154929D01*
X557630Y154933D01*
X557610Y154937D01*
X557590Y154935D01*
X557530Y154939D01*
X546708Y154939D01*
X546763Y155290D01*
X547363Y157137D01*
X548245Y158868D01*
X549387Y160439D01*
X550761Y161813D01*
X552332Y162955D01*
X554063Y163837D01*
X554265Y163902D01*
X554292Y163915D01*
X554321Y163922D01*
X554436Y163983D01*
X554553Y164038D01*
X554576Y164057D01*
X554602Y164071D01*
X554698Y164158D01*
X554798Y164240D01*
X554816Y164265D01*
X554838Y164285D01*
X554909Y164393D01*
X554985Y164498D01*
X554996Y164525D01*
X555012Y164550D01*
X555055Y164673D01*
X555102Y164793D01*
X555106Y164823D01*
X555116Y164851D01*
X555126Y164980D01*
X555142Y165109D01*
X555139Y165138D01*
X555141Y165168D01*
X555119Y165296D01*
X555103Y165424D01*
X555092Y165452D01*
X555087Y165482D01*
X555033Y165599D01*
X554986Y165720D01*
X554968Y165744D01*
X554956Y165772D01*
X554875Y165872D01*
X554799Y165978D01*
X554776Y165997D01*
X554757Y166020D01*
X554654Y166098D01*
X554554Y166180D01*
X554527Y166193D01*
X554503Y166211D01*
X554359Y166282D01*
X551810Y167338D01*
X548338Y170810D01*
X546459Y175345D01*
X546459Y180255D01*
X548338Y184790D01*
X551810Y188262D01*
X556345Y190141D01*
X561255Y190141D01*
X565790Y188262D01*
X569262Y184790D01*
X571141Y180255D01*
X571141Y175345D01*
X569262Y170810D01*
X565790Y167338D01*
X563241Y166282D01*
X563215Y166267D01*
X563187Y166258D01*
X563077Y166189D01*
X562965Y166125D01*
X562944Y166104D01*
X562918Y166088D01*
X562830Y165994D01*
X562737Y165903D01*
X562721Y165878D01*
X562700Y165856D01*
X562638Y165743D01*
X562570Y165632D01*
X562562Y165604D01*
X562547Y165577D01*
X562515Y165452D01*
X562477Y165328D01*
X562475Y165298D01*
X562468Y165269D01*
X562468Y165140D01*
X562462Y165011D01*
X562468Y164981D01*
X562468Y164951D01*
X562500Y164826D01*
X562526Y164699D01*
X562539Y164672D01*
X562546Y164643D01*
X562609Y164530D01*
X562666Y164413D01*
X562685Y164391D01*
X562699Y164364D01*
X562788Y164270D01*
X562872Y164171D01*
X562897Y164154D01*
X562917Y164132D01*
X563026Y164063D01*
X563132Y163988D01*
X563160Y163978D01*
X563185Y163962D01*
X563335Y163902D01*
X563537Y163837D01*
X565268Y162955D01*
X566839Y161813D01*
X568213Y160439D01*
X569355Y158868D01*
X570237Y157137D01*
X570837Y155290D01*
X570892Y154939D01*
X560070Y154939D01*
X559952Y154924D01*
X559833Y154917D01*
X559795Y154904D01*
X559755Y154899D01*
X559644Y154856D01*
X559531Y154819D01*
X559497Y154797D01*
X559459Y154782D01*
X559363Y154712D01*
X559262Y154649D01*
X559234Y154619D01*
X559202Y154595D01*
X559126Y154504D01*
X559044Y154417D01*
X559025Y154382D01*
X558999Y154351D01*
X558948Y154243D01*
X558891Y154139D01*
X558880Y154099D01*
X558863Y154063D01*
X558841Y153946D01*
X558811Y153831D01*
X558807Y153770D01*
X558803Y153750D01*
X558805Y153730D01*
X558801Y153670D01*
X558801Y152399D01*
X558799Y152399D01*
G37*
%LPD*%
%LPC*%
G36*
X288645Y800059D02*
X288645Y800059D01*
X284110Y801938D01*
X280638Y805410D01*
X278759Y809945D01*
X278759Y814855D01*
X280638Y819390D01*
X284110Y822862D01*
X288645Y824741D01*
X293555Y824741D01*
X298090Y822862D01*
X301562Y819390D01*
X303441Y814855D01*
X303441Y809945D01*
X301562Y805410D01*
X298090Y801938D01*
X293555Y800059D01*
X288645Y800059D01*
G37*
%LPD*%
%LPC*%
G36*
X441775Y802599D02*
X441775Y802599D01*
X437240Y804478D01*
X433768Y807950D01*
X431889Y812485D01*
X431889Y817395D01*
X433768Y821930D01*
X437240Y825402D01*
X441775Y827281D01*
X446685Y827281D01*
X451220Y825402D01*
X454692Y821930D01*
X456571Y817395D01*
X456571Y812485D01*
X454692Y807950D01*
X451220Y804478D01*
X446685Y802599D01*
X441775Y802599D01*
G37*
%LPD*%
%LPC*%
G36*
X566775Y802599D02*
X566775Y802599D01*
X562240Y804478D01*
X558768Y807950D01*
X556889Y812485D01*
X556889Y817395D01*
X558768Y821930D01*
X562240Y825402D01*
X566775Y827281D01*
X571685Y827281D01*
X576220Y825402D01*
X579692Y821930D01*
X581571Y817395D01*
X581571Y812485D01*
X579692Y807950D01*
X576220Y804478D01*
X571685Y802599D01*
X566775Y802599D01*
G37*
%LPD*%
%LPC*%
G36*
X163645Y800059D02*
X163645Y800059D01*
X159110Y801938D01*
X155638Y805410D01*
X153759Y809945D01*
X153759Y814855D01*
X155638Y819390D01*
X159110Y822862D01*
X163645Y824741D01*
X168555Y824741D01*
X173090Y822862D01*
X176562Y819390D01*
X178441Y814855D01*
X178441Y809945D01*
X176562Y805410D01*
X173090Y801938D01*
X168555Y800059D01*
X163645Y800059D01*
G37*
%LPD*%
%LPC*%
G36*
X501857Y559936D02*
X501857Y559936D01*
X498636Y561270D01*
X496170Y563736D01*
X494836Y566957D01*
X494836Y570443D01*
X496170Y573664D01*
X498636Y576130D01*
X501857Y577464D01*
X505343Y577464D01*
X508564Y576130D01*
X511030Y573664D01*
X512364Y570443D01*
X512364Y566957D01*
X511030Y563736D01*
X508564Y561270D01*
X505343Y559936D01*
X501857Y559936D01*
G37*
%LPD*%
%LPC*%
G36*
X349457Y559936D02*
X349457Y559936D01*
X346236Y561270D01*
X343770Y563736D01*
X342436Y566957D01*
X342436Y570443D01*
X343770Y573664D01*
X346236Y576130D01*
X349457Y577464D01*
X352943Y577464D01*
X356164Y576130D01*
X358630Y573664D01*
X359964Y570443D01*
X359964Y566957D01*
X358630Y563736D01*
X356164Y561270D01*
X352943Y559936D01*
X349457Y559936D01*
G37*
%LPD*%
%LPC*%
G36*
X552657Y305936D02*
X552657Y305936D01*
X549436Y307270D01*
X546970Y309736D01*
X545636Y312957D01*
X545636Y316443D01*
X546970Y319664D01*
X549436Y322130D01*
X552657Y323464D01*
X556143Y323464D01*
X559364Y322130D01*
X561830Y319664D01*
X563164Y316443D01*
X563164Y312957D01*
X561830Y309736D01*
X559364Y307270D01*
X556143Y305936D01*
X552657Y305936D01*
G37*
%LPD*%
%LPC*%
G36*
X578057Y305936D02*
X578057Y305936D01*
X574836Y307270D01*
X572370Y309736D01*
X571036Y312957D01*
X571036Y316443D01*
X572370Y319664D01*
X574836Y322130D01*
X578057Y323464D01*
X581543Y323464D01*
X584764Y322130D01*
X587230Y319664D01*
X588564Y316443D01*
X588564Y312957D01*
X587230Y309736D01*
X584764Y307270D01*
X581543Y305936D01*
X578057Y305936D01*
G37*
%LPD*%
%LPC*%
G36*
X247857Y305936D02*
X247857Y305936D01*
X244636Y307270D01*
X242170Y309736D01*
X240836Y312957D01*
X240836Y316443D01*
X242170Y319664D01*
X244636Y322130D01*
X247857Y323464D01*
X251343Y323464D01*
X254564Y322130D01*
X257030Y319664D01*
X258364Y316443D01*
X258364Y312957D01*
X257030Y309736D01*
X254564Y307270D01*
X251343Y305936D01*
X247857Y305936D01*
G37*
%LPD*%
%LPC*%
G36*
X273257Y305936D02*
X273257Y305936D01*
X270036Y307270D01*
X267570Y309736D01*
X266236Y312957D01*
X266236Y316443D01*
X267570Y319664D01*
X270036Y322130D01*
X273257Y323464D01*
X276743Y323464D01*
X279964Y322130D01*
X282430Y319664D01*
X283764Y316443D01*
X283764Y312957D01*
X282430Y309736D01*
X279964Y307270D01*
X276743Y305936D01*
X273257Y305936D01*
G37*
%LPD*%
%LPC*%
G36*
X501857Y305936D02*
X501857Y305936D01*
X498636Y307270D01*
X496170Y309736D01*
X494836Y312957D01*
X494836Y316443D01*
X496170Y319664D01*
X498636Y322130D01*
X501857Y323464D01*
X505343Y323464D01*
X508564Y322130D01*
X511030Y319664D01*
X512364Y316443D01*
X512364Y312957D01*
X511030Y309736D01*
X508564Y307270D01*
X505343Y305936D01*
X501857Y305936D01*
G37*
%LPD*%
%LPC*%
G36*
X476457Y305936D02*
X476457Y305936D01*
X473236Y307270D01*
X470770Y309736D01*
X469436Y312957D01*
X469436Y316443D01*
X470770Y319664D01*
X473236Y322130D01*
X476457Y323464D01*
X479943Y323464D01*
X483164Y322130D01*
X485630Y319664D01*
X486964Y316443D01*
X486964Y312957D01*
X485630Y309736D01*
X483164Y307270D01*
X479943Y305936D01*
X476457Y305936D01*
G37*
%LPD*%
%LPC*%
G36*
X451057Y305936D02*
X451057Y305936D01*
X447836Y307270D01*
X445370Y309736D01*
X444036Y312957D01*
X444036Y316443D01*
X445370Y319664D01*
X447836Y322130D01*
X451057Y323464D01*
X454543Y323464D01*
X457764Y322130D01*
X460230Y319664D01*
X461564Y316443D01*
X461564Y312957D01*
X460230Y309736D01*
X457764Y307270D01*
X454543Y305936D01*
X451057Y305936D01*
G37*
%LPD*%
%LPC*%
G36*
X425657Y305936D02*
X425657Y305936D01*
X422436Y307270D01*
X419970Y309736D01*
X418636Y312957D01*
X418636Y316443D01*
X419970Y319664D01*
X422436Y322130D01*
X425657Y323464D01*
X429143Y323464D01*
X432364Y322130D01*
X434830Y319664D01*
X436164Y316443D01*
X436164Y312957D01*
X434830Y309736D01*
X432364Y307270D01*
X429143Y305936D01*
X425657Y305936D01*
G37*
%LPD*%
%LPC*%
G36*
X400257Y305936D02*
X400257Y305936D01*
X397036Y307270D01*
X394570Y309736D01*
X393236Y312957D01*
X393236Y316443D01*
X394570Y319664D01*
X397036Y322130D01*
X400257Y323464D01*
X403743Y323464D01*
X406964Y322130D01*
X409430Y319664D01*
X410764Y316443D01*
X410764Y312957D01*
X409430Y309736D01*
X406964Y307270D01*
X403743Y305936D01*
X400257Y305936D01*
G37*
%LPD*%
%LPC*%
G36*
X374857Y305936D02*
X374857Y305936D01*
X371636Y307270D01*
X369170Y309736D01*
X367836Y312957D01*
X367836Y316443D01*
X369170Y319664D01*
X371636Y322130D01*
X374857Y323464D01*
X378343Y323464D01*
X381564Y322130D01*
X384030Y319664D01*
X385364Y316443D01*
X385364Y312957D01*
X384030Y309736D01*
X381564Y307270D01*
X378343Y305936D01*
X374857Y305936D01*
G37*
%LPD*%
%LPC*%
G36*
X349457Y305936D02*
X349457Y305936D01*
X346236Y307270D01*
X343770Y309736D01*
X342436Y312957D01*
X342436Y316443D01*
X343770Y319664D01*
X346236Y322130D01*
X349457Y323464D01*
X352943Y323464D01*
X356164Y322130D01*
X358630Y319664D01*
X359964Y316443D01*
X359964Y312957D01*
X358630Y309736D01*
X356164Y307270D01*
X352943Y305936D01*
X349457Y305936D01*
G37*
%LPD*%
%LPC*%
G36*
X298657Y305936D02*
X298657Y305936D01*
X295436Y307270D01*
X292970Y309736D01*
X291636Y312957D01*
X291636Y316443D01*
X292970Y319664D01*
X295436Y322130D01*
X298657Y323464D01*
X302143Y323464D01*
X305364Y322130D01*
X307830Y319664D01*
X309164Y316443D01*
X309164Y312957D01*
X307830Y309736D01*
X305364Y307270D01*
X302143Y305936D01*
X298657Y305936D01*
G37*
%LPD*%
%LPC*%
G36*
X146257Y331336D02*
X146257Y331336D01*
X143036Y332670D01*
X140570Y335136D01*
X139236Y338357D01*
X139236Y341843D01*
X140570Y345064D01*
X143036Y347530D01*
X146257Y348864D01*
X149743Y348864D01*
X152964Y347530D01*
X155430Y345064D01*
X156764Y341843D01*
X156764Y338357D01*
X155430Y335136D01*
X152964Y332670D01*
X149743Y331336D01*
X146257Y331336D01*
G37*
%LPD*%
%LPC*%
G36*
X171657Y331336D02*
X171657Y331336D01*
X168436Y332670D01*
X165970Y335136D01*
X164636Y338357D01*
X164636Y341843D01*
X165970Y345064D01*
X168436Y347530D01*
X171657Y348864D01*
X175143Y348864D01*
X178364Y347530D01*
X180830Y345064D01*
X182164Y341843D01*
X182164Y338357D01*
X180830Y335136D01*
X178364Y332670D01*
X175143Y331336D01*
X171657Y331336D01*
G37*
%LPD*%
%LPC*%
G36*
X552657Y585336D02*
X552657Y585336D01*
X549436Y586670D01*
X546970Y589136D01*
X545636Y592357D01*
X545636Y595843D01*
X546970Y599064D01*
X549436Y601530D01*
X552657Y602864D01*
X556143Y602864D01*
X559364Y601530D01*
X561830Y599064D01*
X563164Y595843D01*
X563164Y592357D01*
X561830Y589136D01*
X559364Y586670D01*
X556143Y585336D01*
X552657Y585336D01*
G37*
%LPD*%
%LPC*%
G36*
X527257Y585336D02*
X527257Y585336D01*
X524036Y586670D01*
X521570Y589136D01*
X520236Y592357D01*
X520236Y595843D01*
X521570Y599064D01*
X524036Y601530D01*
X527257Y602864D01*
X530743Y602864D01*
X533964Y601530D01*
X536430Y599064D01*
X537764Y595843D01*
X537764Y592357D01*
X536430Y589136D01*
X533964Y586670D01*
X530743Y585336D01*
X527257Y585336D01*
G37*
%LPD*%
%LPC*%
G36*
X578057Y585336D02*
X578057Y585336D01*
X574836Y586670D01*
X572370Y589136D01*
X571036Y592357D01*
X571036Y595843D01*
X572370Y599064D01*
X574836Y601530D01*
X578057Y602864D01*
X581543Y602864D01*
X584764Y601530D01*
X587230Y599064D01*
X588564Y595843D01*
X588564Y592357D01*
X587230Y589136D01*
X584764Y586670D01*
X581543Y585336D01*
X578057Y585336D01*
G37*
%LPD*%
%LPC*%
G36*
X171657Y585336D02*
X171657Y585336D01*
X168436Y586670D01*
X165970Y589136D01*
X164636Y592357D01*
X164636Y595843D01*
X165970Y599064D01*
X168436Y601530D01*
X171657Y602864D01*
X175143Y602864D01*
X178364Y601530D01*
X180830Y599064D01*
X182164Y595843D01*
X182164Y592357D01*
X180830Y589136D01*
X178364Y586670D01*
X175143Y585336D01*
X171657Y585336D01*
G37*
%LPD*%
%LPC*%
G36*
X146257Y585336D02*
X146257Y585336D01*
X143036Y586670D01*
X140570Y589136D01*
X139236Y592357D01*
X139236Y595843D01*
X140570Y599064D01*
X143036Y601530D01*
X146257Y602864D01*
X149743Y602864D01*
X152964Y601530D01*
X155430Y599064D01*
X156764Y595843D01*
X156764Y592357D01*
X155430Y589136D01*
X152964Y586670D01*
X149743Y585336D01*
X146257Y585336D01*
G37*
%LPD*%
%LPC*%
G36*
X501857Y585336D02*
X501857Y585336D01*
X498636Y586670D01*
X496170Y589136D01*
X494836Y592357D01*
X494836Y595843D01*
X496170Y599064D01*
X498636Y601530D01*
X501857Y602864D01*
X505343Y602864D01*
X508564Y601530D01*
X511030Y599064D01*
X512364Y595843D01*
X512364Y592357D01*
X511030Y589136D01*
X508564Y586670D01*
X505343Y585336D01*
X501857Y585336D01*
G37*
%LPD*%
%LPC*%
G36*
X476457Y585336D02*
X476457Y585336D01*
X473236Y586670D01*
X470770Y589136D01*
X469436Y592357D01*
X469436Y595843D01*
X470770Y599064D01*
X473236Y601530D01*
X476457Y602864D01*
X479943Y602864D01*
X483164Y601530D01*
X485630Y599064D01*
X486964Y595843D01*
X486964Y592357D01*
X485630Y589136D01*
X483164Y586670D01*
X479943Y585336D01*
X476457Y585336D01*
G37*
%LPD*%
%LPC*%
G36*
X451057Y585336D02*
X451057Y585336D01*
X447836Y586670D01*
X445370Y589136D01*
X444036Y592357D01*
X444036Y595843D01*
X445370Y599064D01*
X447836Y601530D01*
X451057Y602864D01*
X454543Y602864D01*
X457764Y601530D01*
X460230Y599064D01*
X461564Y595843D01*
X461564Y592357D01*
X460230Y589136D01*
X457764Y586670D01*
X454543Y585336D01*
X451057Y585336D01*
G37*
%LPD*%
%LPC*%
G36*
X425657Y585336D02*
X425657Y585336D01*
X422436Y586670D01*
X419970Y589136D01*
X418636Y592357D01*
X418636Y595843D01*
X419970Y599064D01*
X422436Y601530D01*
X425657Y602864D01*
X429143Y602864D01*
X432364Y601530D01*
X434830Y599064D01*
X436164Y595843D01*
X436164Y592357D01*
X434830Y589136D01*
X432364Y586670D01*
X429143Y585336D01*
X425657Y585336D01*
G37*
%LPD*%
%LPC*%
G36*
X400257Y585336D02*
X400257Y585336D01*
X397036Y586670D01*
X394570Y589136D01*
X393236Y592357D01*
X393236Y595843D01*
X394570Y599064D01*
X397036Y601530D01*
X400257Y602864D01*
X403743Y602864D01*
X406964Y601530D01*
X409430Y599064D01*
X410764Y595843D01*
X410764Y592357D01*
X409430Y589136D01*
X406964Y586670D01*
X403743Y585336D01*
X400257Y585336D01*
G37*
%LPD*%
%LPC*%
G36*
X374857Y585336D02*
X374857Y585336D01*
X371636Y586670D01*
X369170Y589136D01*
X367836Y592357D01*
X367836Y595843D01*
X369170Y599064D01*
X371636Y601530D01*
X374857Y602864D01*
X378343Y602864D01*
X381564Y601530D01*
X384030Y599064D01*
X385364Y595843D01*
X385364Y592357D01*
X384030Y589136D01*
X381564Y586670D01*
X378343Y585336D01*
X374857Y585336D01*
G37*
%LPD*%
%LPC*%
G36*
X349457Y585336D02*
X349457Y585336D01*
X346236Y586670D01*
X343770Y589136D01*
X342436Y592357D01*
X342436Y595843D01*
X343770Y599064D01*
X346236Y601530D01*
X349457Y602864D01*
X352943Y602864D01*
X356164Y601530D01*
X358630Y599064D01*
X359964Y595843D01*
X359964Y592357D01*
X358630Y589136D01*
X356164Y586670D01*
X352943Y585336D01*
X349457Y585336D01*
G37*
%LPD*%
%LPC*%
G36*
X324057Y585336D02*
X324057Y585336D01*
X320836Y586670D01*
X318370Y589136D01*
X317036Y592357D01*
X317036Y595843D01*
X318370Y599064D01*
X320836Y601530D01*
X324057Y602864D01*
X327543Y602864D01*
X330764Y601530D01*
X333230Y599064D01*
X334564Y595843D01*
X334564Y592357D01*
X333230Y589136D01*
X330764Y586670D01*
X327543Y585336D01*
X324057Y585336D01*
G37*
%LPD*%
%LPC*%
G36*
X298657Y585336D02*
X298657Y585336D01*
X295436Y586670D01*
X292970Y589136D01*
X291636Y592357D01*
X291636Y595843D01*
X292970Y599064D01*
X295436Y601530D01*
X298657Y602864D01*
X302143Y602864D01*
X305364Y601530D01*
X307830Y599064D01*
X309164Y595843D01*
X309164Y592357D01*
X307830Y589136D01*
X305364Y586670D01*
X302143Y585336D01*
X298657Y585336D01*
G37*
%LPD*%
%LPC*%
G36*
X273257Y585336D02*
X273257Y585336D01*
X270036Y586670D01*
X267570Y589136D01*
X266236Y592357D01*
X266236Y595843D01*
X267570Y599064D01*
X270036Y601530D01*
X273257Y602864D01*
X276743Y602864D01*
X279964Y601530D01*
X282430Y599064D01*
X283764Y595843D01*
X283764Y592357D01*
X282430Y589136D01*
X279964Y586670D01*
X276743Y585336D01*
X273257Y585336D01*
G37*
%LPD*%
%LPC*%
G36*
X247857Y585336D02*
X247857Y585336D01*
X244636Y586670D01*
X242170Y589136D01*
X240836Y592357D01*
X240836Y595843D01*
X242170Y599064D01*
X244636Y601530D01*
X247857Y602864D01*
X251343Y602864D01*
X254564Y601530D01*
X257030Y599064D01*
X258364Y595843D01*
X258364Y592357D01*
X257030Y589136D01*
X254564Y586670D01*
X251343Y585336D01*
X247857Y585336D01*
G37*
%LPD*%
%LPC*%
G36*
X222457Y585336D02*
X222457Y585336D01*
X219236Y586670D01*
X216770Y589136D01*
X215436Y592357D01*
X215436Y595843D01*
X216770Y599064D01*
X219236Y601530D01*
X222457Y602864D01*
X225943Y602864D01*
X229164Y601530D01*
X231630Y599064D01*
X232964Y595843D01*
X232964Y592357D01*
X231630Y589136D01*
X229164Y586670D01*
X225943Y585336D01*
X222457Y585336D01*
G37*
%LPD*%
%LPC*%
G36*
X197057Y585336D02*
X197057Y585336D01*
X193836Y586670D01*
X191370Y589136D01*
X190036Y592357D01*
X190036Y595843D01*
X191370Y599064D01*
X193836Y601530D01*
X197057Y602864D01*
X200543Y602864D01*
X203764Y601530D01*
X206230Y599064D01*
X207564Y595843D01*
X207564Y592357D01*
X206230Y589136D01*
X203764Y586670D01*
X200543Y585336D01*
X197057Y585336D01*
G37*
%LPD*%
%LPC*%
G36*
X171657Y559936D02*
X171657Y559936D01*
X168436Y561270D01*
X165970Y563736D01*
X164636Y566957D01*
X164636Y570443D01*
X165970Y573664D01*
X168436Y576130D01*
X171657Y577464D01*
X175143Y577464D01*
X178364Y576130D01*
X180830Y573664D01*
X182164Y570443D01*
X182164Y566957D01*
X180830Y563736D01*
X178364Y561270D01*
X175143Y559936D01*
X171657Y559936D01*
G37*
%LPD*%
%LPC*%
G36*
X146257Y559936D02*
X146257Y559936D01*
X143036Y561270D01*
X140570Y563736D01*
X139236Y566957D01*
X139236Y570443D01*
X140570Y573664D01*
X143036Y576130D01*
X146257Y577464D01*
X149743Y577464D01*
X152964Y576130D01*
X155430Y573664D01*
X156764Y570443D01*
X156764Y566957D01*
X155430Y563736D01*
X152964Y561270D01*
X149743Y559936D01*
X146257Y559936D01*
G37*
%LPD*%
%LPC*%
G36*
X578057Y559936D02*
X578057Y559936D01*
X574836Y561270D01*
X572370Y563736D01*
X571036Y566957D01*
X571036Y570443D01*
X572370Y573664D01*
X574836Y576130D01*
X578057Y577464D01*
X581543Y577464D01*
X584764Y576130D01*
X587230Y573664D01*
X588564Y570443D01*
X588564Y566957D01*
X587230Y563736D01*
X584764Y561270D01*
X581543Y559936D01*
X578057Y559936D01*
G37*
%LPD*%
%LPC*%
G36*
X552657Y559936D02*
X552657Y559936D01*
X549436Y561270D01*
X546970Y563736D01*
X545636Y566957D01*
X545636Y570443D01*
X546970Y573664D01*
X549436Y576130D01*
X552657Y577464D01*
X556143Y577464D01*
X559364Y576130D01*
X561830Y573664D01*
X563164Y570443D01*
X563164Y566957D01*
X561830Y563736D01*
X559364Y561270D01*
X556143Y559936D01*
X552657Y559936D01*
G37*
%LPD*%
%LPC*%
G36*
X527257Y559936D02*
X527257Y559936D01*
X524036Y561270D01*
X521570Y563736D01*
X520236Y566957D01*
X520236Y570443D01*
X521570Y573664D01*
X524036Y576130D01*
X527257Y577464D01*
X530743Y577464D01*
X533964Y576130D01*
X536430Y573664D01*
X537764Y570443D01*
X537764Y566957D01*
X536430Y563736D01*
X533964Y561270D01*
X530743Y559936D01*
X527257Y559936D01*
G37*
%LPD*%
%LPC*%
G36*
X197057Y331336D02*
X197057Y331336D01*
X193836Y332670D01*
X191370Y335136D01*
X190036Y338357D01*
X190036Y341843D01*
X191370Y345064D01*
X193836Y347530D01*
X197057Y348864D01*
X200543Y348864D01*
X203764Y347530D01*
X206230Y345064D01*
X207564Y341843D01*
X207564Y338357D01*
X206230Y335136D01*
X203764Y332670D01*
X200543Y331336D01*
X197057Y331336D01*
G37*
%LPD*%
%LPC*%
G36*
X476457Y559936D02*
X476457Y559936D01*
X473236Y561270D01*
X470770Y563736D01*
X469436Y566957D01*
X469436Y570443D01*
X470770Y573664D01*
X473236Y576130D01*
X476457Y577464D01*
X479943Y577464D01*
X483164Y576130D01*
X485630Y573664D01*
X486964Y570443D01*
X486964Y566957D01*
X485630Y563736D01*
X483164Y561270D01*
X479943Y559936D01*
X476457Y559936D01*
G37*
%LPD*%
%LPC*%
G36*
X451057Y559936D02*
X451057Y559936D01*
X447836Y561270D01*
X445370Y563736D01*
X444036Y566957D01*
X444036Y570443D01*
X445370Y573664D01*
X447836Y576130D01*
X451057Y577464D01*
X454543Y577464D01*
X457764Y576130D01*
X460230Y573664D01*
X461564Y570443D01*
X461564Y566957D01*
X460230Y563736D01*
X457764Y561270D01*
X454543Y559936D01*
X451057Y559936D01*
G37*
%LPD*%
%LPC*%
G36*
X425657Y559936D02*
X425657Y559936D01*
X422436Y561270D01*
X419970Y563736D01*
X418636Y566957D01*
X418636Y570443D01*
X419970Y573664D01*
X422436Y576130D01*
X425657Y577464D01*
X429143Y577464D01*
X432364Y576130D01*
X434830Y573664D01*
X436164Y570443D01*
X436164Y566957D01*
X434830Y563736D01*
X432364Y561270D01*
X429143Y559936D01*
X425657Y559936D01*
G37*
%LPD*%
%LPC*%
G36*
X374857Y559936D02*
X374857Y559936D01*
X371636Y561270D01*
X369170Y563736D01*
X367836Y566957D01*
X367836Y570443D01*
X369170Y573664D01*
X371636Y576130D01*
X374857Y577464D01*
X378343Y577464D01*
X381564Y576130D01*
X384030Y573664D01*
X385364Y570443D01*
X385364Y566957D01*
X384030Y563736D01*
X381564Y561270D01*
X378343Y559936D01*
X374857Y559936D01*
G37*
%LPD*%
%LPC*%
G36*
X527257Y305936D02*
X527257Y305936D01*
X524036Y307270D01*
X521570Y309736D01*
X520236Y312957D01*
X520236Y316443D01*
X521570Y319664D01*
X524036Y322130D01*
X527257Y323464D01*
X530743Y323464D01*
X533964Y322130D01*
X536430Y319664D01*
X537764Y316443D01*
X537764Y312957D01*
X536430Y309736D01*
X533964Y307270D01*
X530743Y305936D01*
X527257Y305936D01*
G37*
%LPD*%
%LPC*%
G36*
X298657Y559936D02*
X298657Y559936D01*
X295436Y561270D01*
X292970Y563736D01*
X291636Y566957D01*
X291636Y570443D01*
X292970Y573664D01*
X295436Y576130D01*
X298657Y577464D01*
X302143Y577464D01*
X305364Y576130D01*
X307830Y573664D01*
X309164Y570443D01*
X309164Y566957D01*
X307830Y563736D01*
X305364Y561270D01*
X302143Y559936D01*
X298657Y559936D01*
G37*
%LPD*%
%LPC*%
G36*
X273257Y559936D02*
X273257Y559936D01*
X270036Y561270D01*
X267570Y563736D01*
X266236Y566957D01*
X266236Y570443D01*
X267570Y573664D01*
X270036Y576130D01*
X273257Y577464D01*
X276743Y577464D01*
X279964Y576130D01*
X282430Y573664D01*
X283764Y570443D01*
X283764Y566957D01*
X282430Y563736D01*
X279964Y561270D01*
X276743Y559936D01*
X273257Y559936D01*
G37*
%LPD*%
%LPC*%
G36*
X247857Y559936D02*
X247857Y559936D01*
X244636Y561270D01*
X242170Y563736D01*
X240836Y566957D01*
X240836Y570443D01*
X242170Y573664D01*
X244636Y576130D01*
X247857Y577464D01*
X251343Y577464D01*
X254564Y576130D01*
X257030Y573664D01*
X258364Y570443D01*
X258364Y566957D01*
X257030Y563736D01*
X254564Y561270D01*
X251343Y559936D01*
X247857Y559936D01*
G37*
%LPD*%
%LPC*%
G36*
X222457Y559936D02*
X222457Y559936D01*
X219236Y561270D01*
X216770Y563736D01*
X215436Y566957D01*
X215436Y570443D01*
X216770Y573664D01*
X219236Y576130D01*
X222457Y577464D01*
X225943Y577464D01*
X229164Y576130D01*
X231630Y573664D01*
X232964Y570443D01*
X232964Y566957D01*
X231630Y563736D01*
X229164Y561270D01*
X225943Y559936D01*
X222457Y559936D01*
G37*
%LPD*%
%LPC*%
G36*
X197057Y559936D02*
X197057Y559936D01*
X193836Y561270D01*
X191370Y563736D01*
X190036Y566957D01*
X190036Y570443D01*
X191370Y573664D01*
X193836Y576130D01*
X197057Y577464D01*
X200543Y577464D01*
X203764Y576130D01*
X206230Y573664D01*
X207564Y570443D01*
X207564Y566957D01*
X206230Y563736D01*
X203764Y561270D01*
X200543Y559936D01*
X197057Y559936D01*
G37*
%LPD*%
%LPC*%
G36*
X222457Y331336D02*
X222457Y331336D01*
X219236Y332670D01*
X216770Y335136D01*
X215436Y338357D01*
X215436Y341843D01*
X216770Y345064D01*
X219236Y347530D01*
X222457Y348864D01*
X225943Y348864D01*
X229164Y347530D01*
X231630Y345064D01*
X232964Y341843D01*
X232964Y338357D01*
X231630Y335136D01*
X229164Y332670D01*
X225943Y331336D01*
X222457Y331336D01*
G37*
%LPD*%
%LPC*%
G36*
X247857Y331336D02*
X247857Y331336D01*
X244636Y332670D01*
X242170Y335136D01*
X240836Y338357D01*
X240836Y341843D01*
X242170Y345064D01*
X244636Y347530D01*
X247857Y348864D01*
X251343Y348864D01*
X254564Y347530D01*
X257030Y345064D01*
X258364Y341843D01*
X258364Y338357D01*
X257030Y335136D01*
X254564Y332670D01*
X251343Y331336D01*
X247857Y331336D01*
G37*
%LPD*%
%LPC*%
G36*
X273257Y331336D02*
X273257Y331336D01*
X270036Y332670D01*
X267570Y335136D01*
X266236Y338357D01*
X266236Y341843D01*
X267570Y345064D01*
X270036Y347530D01*
X273257Y348864D01*
X276743Y348864D01*
X279964Y347530D01*
X282430Y345064D01*
X283764Y341843D01*
X283764Y338357D01*
X282430Y335136D01*
X279964Y332670D01*
X276743Y331336D01*
X273257Y331336D01*
G37*
%LPD*%
%LPC*%
G36*
X298657Y331336D02*
X298657Y331336D01*
X295436Y332670D01*
X292970Y335136D01*
X291636Y338357D01*
X291636Y341843D01*
X292970Y345064D01*
X295436Y347530D01*
X298657Y348864D01*
X302143Y348864D01*
X305364Y347530D01*
X307830Y345064D01*
X309164Y341843D01*
X309164Y338357D01*
X307830Y335136D01*
X305364Y332670D01*
X302143Y331336D01*
X298657Y331336D01*
G37*
%LPD*%
%LPC*%
G36*
X146257Y305936D02*
X146257Y305936D01*
X143036Y307270D01*
X140570Y309736D01*
X139236Y312957D01*
X139236Y316443D01*
X140570Y319664D01*
X143036Y322130D01*
X146257Y323464D01*
X149743Y323464D01*
X152964Y322130D01*
X155430Y319664D01*
X156764Y316443D01*
X156764Y312957D01*
X155430Y309736D01*
X152964Y307270D01*
X149743Y305936D01*
X146257Y305936D01*
G37*
%LPD*%
%LPC*%
G36*
X171657Y305936D02*
X171657Y305936D01*
X168436Y307270D01*
X165970Y309736D01*
X164636Y312957D01*
X164636Y316443D01*
X165970Y319664D01*
X168436Y322130D01*
X171657Y323464D01*
X175143Y323464D01*
X178364Y322130D01*
X180830Y319664D01*
X182164Y316443D01*
X182164Y312957D01*
X180830Y309736D01*
X178364Y307270D01*
X175143Y305936D01*
X171657Y305936D01*
G37*
%LPD*%
%LPC*%
G36*
X197057Y305936D02*
X197057Y305936D01*
X193836Y307270D01*
X191370Y309736D01*
X190036Y312957D01*
X190036Y316443D01*
X191370Y319664D01*
X193836Y322130D01*
X197057Y323464D01*
X200543Y323464D01*
X203764Y322130D01*
X206230Y319664D01*
X207564Y316443D01*
X207564Y312957D01*
X206230Y309736D01*
X203764Y307270D01*
X200543Y305936D01*
X197057Y305936D01*
G37*
%LPD*%
%LPC*%
G36*
X222457Y305936D02*
X222457Y305936D01*
X219236Y307270D01*
X216770Y309736D01*
X215436Y312957D01*
X215436Y316443D01*
X216770Y319664D01*
X219236Y322130D01*
X222457Y323464D01*
X225943Y323464D01*
X229164Y322130D01*
X231630Y319664D01*
X232964Y316443D01*
X232964Y312957D01*
X231630Y309736D01*
X229164Y307270D01*
X225943Y305936D01*
X222457Y305936D01*
G37*
%LPD*%
%LPC*%
G36*
X578057Y331336D02*
X578057Y331336D01*
X574836Y332670D01*
X572370Y335136D01*
X571036Y338357D01*
X571036Y341843D01*
X572370Y345064D01*
X574836Y347530D01*
X578057Y348864D01*
X581543Y348864D01*
X584764Y347530D01*
X587230Y345064D01*
X588564Y341843D01*
X588564Y338357D01*
X587230Y335136D01*
X584764Y332670D01*
X581543Y331336D01*
X578057Y331336D01*
G37*
%LPD*%
%LPC*%
G36*
X552657Y331336D02*
X552657Y331336D01*
X549436Y332670D01*
X546970Y335136D01*
X545636Y338357D01*
X545636Y341843D01*
X546970Y345064D01*
X549436Y347530D01*
X552657Y348864D01*
X556143Y348864D01*
X559364Y347530D01*
X561830Y345064D01*
X563164Y341843D01*
X563164Y338357D01*
X561830Y335136D01*
X559364Y332670D01*
X556143Y331336D01*
X552657Y331336D01*
G37*
%LPD*%
%LPC*%
G36*
X527257Y331336D02*
X527257Y331336D01*
X524036Y332670D01*
X521570Y335136D01*
X520236Y338357D01*
X520236Y341843D01*
X521570Y345064D01*
X524036Y347530D01*
X527257Y348864D01*
X530743Y348864D01*
X533964Y347530D01*
X536430Y345064D01*
X537764Y341843D01*
X537764Y338357D01*
X536430Y335136D01*
X533964Y332670D01*
X530743Y331336D01*
X527257Y331336D01*
G37*
%LPD*%
%LPC*%
G36*
X501857Y331336D02*
X501857Y331336D01*
X498636Y332670D01*
X496170Y335136D01*
X494836Y338357D01*
X494836Y341843D01*
X496170Y345064D01*
X498636Y347530D01*
X501857Y348864D01*
X505343Y348864D01*
X508564Y347530D01*
X511030Y345064D01*
X512364Y341843D01*
X512364Y338357D01*
X511030Y335136D01*
X508564Y332670D01*
X505343Y331336D01*
X501857Y331336D01*
G37*
%LPD*%
%LPC*%
G36*
X476457Y331336D02*
X476457Y331336D01*
X473236Y332670D01*
X470770Y335136D01*
X469436Y338357D01*
X469436Y341843D01*
X470770Y345064D01*
X473236Y347530D01*
X476457Y348864D01*
X479943Y348864D01*
X483164Y347530D01*
X485630Y345064D01*
X486964Y341843D01*
X486964Y338357D01*
X485630Y335136D01*
X483164Y332670D01*
X479943Y331336D01*
X476457Y331336D01*
G37*
%LPD*%
%LPC*%
G36*
X451057Y331336D02*
X451057Y331336D01*
X447836Y332670D01*
X445370Y335136D01*
X444036Y338357D01*
X444036Y341843D01*
X445370Y345064D01*
X447836Y347530D01*
X451057Y348864D01*
X454543Y348864D01*
X457764Y347530D01*
X460230Y345064D01*
X461564Y341843D01*
X461564Y338357D01*
X460230Y335136D01*
X457764Y332670D01*
X454543Y331336D01*
X451057Y331336D01*
G37*
%LPD*%
%LPC*%
G36*
X425657Y331336D02*
X425657Y331336D01*
X422436Y332670D01*
X419970Y335136D01*
X418636Y338357D01*
X418636Y341843D01*
X419970Y345064D01*
X422436Y347530D01*
X425657Y348864D01*
X429143Y348864D01*
X432364Y347530D01*
X434830Y345064D01*
X436164Y341843D01*
X436164Y338357D01*
X434830Y335136D01*
X432364Y332670D01*
X429143Y331336D01*
X425657Y331336D01*
G37*
%LPD*%
%LPC*%
G36*
X374857Y331336D02*
X374857Y331336D01*
X371636Y332670D01*
X369170Y335136D01*
X367836Y338357D01*
X367836Y341843D01*
X369170Y345064D01*
X371636Y347530D01*
X374857Y348864D01*
X378343Y348864D01*
X381564Y347530D01*
X384030Y345064D01*
X385364Y341843D01*
X385364Y338357D01*
X384030Y335136D01*
X381564Y332670D01*
X378343Y331336D01*
X374857Y331336D01*
G37*
%LPD*%
%LPC*%
G36*
X349457Y331336D02*
X349457Y331336D01*
X346236Y332670D01*
X343770Y335136D01*
X342436Y338357D01*
X342436Y341843D01*
X343770Y345064D01*
X346236Y347530D01*
X349457Y348864D01*
X352943Y348864D01*
X356164Y347530D01*
X358630Y345064D01*
X359964Y341843D01*
X359964Y338357D01*
X358630Y335136D01*
X356164Y332670D01*
X352943Y331336D01*
X349457Y331336D01*
G37*
%LPD*%
%LPC*%
G36*
X446769Y767479D02*
X446769Y767479D01*
X446769Y777032D01*
X447120Y776977D01*
X448967Y776377D01*
X450698Y775495D01*
X452084Y774488D01*
X452269Y774353D01*
X453643Y772979D01*
X454785Y771408D01*
X455667Y769677D01*
X456267Y767830D01*
X456322Y767479D01*
X446769Y767479D01*
G37*
%LPD*%
%LPC*%
G36*
X571769Y767479D02*
X571769Y767479D01*
X571769Y777032D01*
X572120Y776977D01*
X573967Y776377D01*
X575698Y775495D01*
X577084Y774488D01*
X577269Y774353D01*
X578643Y772979D01*
X579785Y771408D01*
X580667Y769677D01*
X581267Y767830D01*
X581322Y767479D01*
X571769Y767479D01*
G37*
%LPD*%
%LPC*%
G36*
X293639Y764939D02*
X293639Y764939D01*
X293639Y774492D01*
X293990Y774437D01*
X295837Y773837D01*
X297568Y772955D01*
X299139Y771813D01*
X300513Y770439D01*
X301655Y768868D01*
X302537Y767137D01*
X303137Y765290D01*
X303192Y764939D01*
X293639Y764939D01*
G37*
%LPD*%
%LPC*%
G36*
X262889Y224789D02*
X262889Y224789D01*
X262889Y234342D01*
X263240Y234287D01*
X265087Y233687D01*
X266818Y232805D01*
X268389Y231663D01*
X269763Y230289D01*
X270905Y228718D01*
X271787Y226987D01*
X272387Y225140D01*
X272442Y224789D01*
X262889Y224789D01*
G37*
%LPD*%
%LPC*%
G36*
X168639Y764939D02*
X168639Y764939D01*
X168639Y774492D01*
X168990Y774437D01*
X170837Y773837D01*
X172568Y772955D01*
X174139Y771813D01*
X175513Y770439D01*
X176655Y768868D01*
X177537Y767137D01*
X178137Y765290D01*
X178192Y764939D01*
X168639Y764939D01*
G37*
%LPD*%
%LPC*%
G36*
X248258Y224789D02*
X248258Y224789D01*
X248313Y225140D01*
X248913Y226987D01*
X249795Y228718D01*
X250937Y230289D01*
X252311Y231663D01*
X253882Y232805D01*
X255613Y233687D01*
X257460Y234287D01*
X257811Y234342D01*
X257811Y224789D01*
X248258Y224789D01*
G37*
%LPD*%
%LPC*%
G36*
X293639Y759861D02*
X293639Y759861D01*
X303192Y759861D01*
X303137Y759510D01*
X302537Y757663D01*
X301655Y755932D01*
X300513Y754361D01*
X299139Y752987D01*
X297568Y751845D01*
X295837Y750963D01*
X293990Y750363D01*
X293639Y750308D01*
X293639Y759861D01*
G37*
%LPD*%
%LPC*%
G36*
X446769Y762401D02*
X446769Y762401D01*
X456322Y762401D01*
X456267Y762050D01*
X455667Y760203D01*
X454785Y758472D01*
X453643Y756901D01*
X452269Y755527D01*
X450698Y754385D01*
X448967Y753503D01*
X447120Y752903D01*
X446769Y752848D01*
X446769Y762401D01*
G37*
%LPD*%
%LPC*%
G36*
X168639Y759861D02*
X168639Y759861D01*
X178192Y759861D01*
X178137Y759510D01*
X177537Y757663D01*
X176655Y755932D01*
X175513Y754361D01*
X174139Y752987D01*
X172568Y751845D01*
X170837Y750963D01*
X168990Y750363D01*
X168639Y750308D01*
X168639Y759861D01*
G37*
%LPD*%
%LPC*%
G36*
X154008Y764939D02*
X154008Y764939D01*
X154063Y765290D01*
X154663Y767137D01*
X155545Y768868D01*
X156687Y770439D01*
X158061Y771813D01*
X159632Y772955D01*
X161363Y773837D01*
X163210Y774437D01*
X163561Y774492D01*
X163561Y764939D01*
X154008Y764939D01*
G37*
%LPD*%
%LPC*%
G36*
X279008Y764939D02*
X279008Y764939D01*
X279063Y765290D01*
X279663Y767137D01*
X280545Y768868D01*
X281687Y770439D01*
X283061Y771813D01*
X284632Y772955D01*
X286363Y773837D01*
X288210Y774437D01*
X288561Y774492D01*
X288561Y764939D01*
X279008Y764939D01*
G37*
%LPD*%
%LPC*%
G36*
X557138Y767479D02*
X557138Y767479D01*
X557193Y767830D01*
X557793Y769677D01*
X558675Y771408D01*
X559817Y772979D01*
X561191Y774353D01*
X562762Y775495D01*
X564493Y776377D01*
X566340Y776977D01*
X566691Y777032D01*
X566691Y767479D01*
X557138Y767479D01*
G37*
%LPD*%
%LPC*%
G36*
X571769Y762401D02*
X571769Y762401D01*
X581322Y762401D01*
X581267Y762050D01*
X580667Y760203D01*
X579785Y758472D01*
X578643Y756901D01*
X577269Y755527D01*
X575698Y754385D01*
X573967Y753503D01*
X572120Y752903D01*
X571769Y752848D01*
X571769Y762401D01*
G37*
%LPD*%
%LPC*%
G36*
X432138Y767479D02*
X432138Y767479D01*
X432193Y767830D01*
X432793Y769677D01*
X433675Y771408D01*
X434817Y772979D01*
X436191Y774353D01*
X437762Y775495D01*
X439493Y776377D01*
X441340Y776977D01*
X441691Y777032D01*
X441691Y767479D01*
X432138Y767479D01*
G37*
%LPD*%
%LPC*%
G36*
X561339Y149861D02*
X561339Y149861D01*
X570892Y149861D01*
X570837Y149510D01*
X570237Y147663D01*
X569355Y145932D01*
X568213Y144361D01*
X566839Y142987D01*
X565268Y141845D01*
X563537Y140963D01*
X561690Y140363D01*
X561339Y140308D01*
X561339Y149861D01*
G37*
%LPD*%
%LPC*%
G36*
X555910Y140363D02*
X555910Y140363D01*
X554063Y140963D01*
X552332Y141845D01*
X550761Y142987D01*
X549387Y144361D01*
X548245Y145932D01*
X547363Y147663D01*
X546763Y149510D01*
X546708Y149861D01*
X556261Y149861D01*
X556261Y140308D01*
X555910Y140363D01*
G37*
%LPD*%
%LPC*%
G36*
X566340Y752903D02*
X566340Y752903D01*
X564493Y753503D01*
X562762Y754385D01*
X561191Y755527D01*
X559817Y756901D01*
X558675Y758472D01*
X557793Y760203D01*
X557193Y762050D01*
X557138Y762401D01*
X566691Y762401D01*
X566691Y752848D01*
X566340Y752903D01*
G37*
%LPD*%
%LPC*%
G36*
X288210Y750363D02*
X288210Y750363D01*
X286363Y750963D01*
X284632Y751845D01*
X283061Y752987D01*
X281687Y754361D01*
X280545Y755932D01*
X279663Y757663D01*
X279063Y759510D01*
X279008Y759861D01*
X288561Y759861D01*
X288561Y750308D01*
X288210Y750363D01*
G37*
%LPD*%
%LPC*%
G36*
X441340Y752903D02*
X441340Y752903D01*
X439493Y753503D01*
X437762Y754385D01*
X436191Y755527D01*
X434817Y756901D01*
X433675Y758472D01*
X432793Y760203D01*
X432193Y762050D01*
X432138Y762401D01*
X441691Y762401D01*
X441691Y752848D01*
X441340Y752903D01*
G37*
%LPD*%
%LPC*%
G36*
X163210Y750363D02*
X163210Y750363D01*
X161363Y750963D01*
X159632Y751845D01*
X158061Y752987D01*
X156687Y754361D01*
X155545Y755932D01*
X154663Y757663D01*
X154063Y759510D01*
X154008Y759861D01*
X163561Y759861D01*
X163561Y750308D01*
X163210Y750363D01*
G37*
%LPD*%
%LPC*%
G36*
X328022Y570922D02*
X328022Y570922D01*
X328022Y577193D01*
X328356Y577127D01*
X329951Y576466D01*
X331387Y575507D01*
X332607Y574287D01*
X333566Y572851D01*
X334227Y571256D01*
X334293Y570922D01*
X328022Y570922D01*
G37*
%LPD*%
%LPC*%
G36*
X404222Y570922D02*
X404222Y570922D01*
X404222Y577193D01*
X404556Y577127D01*
X406151Y576466D01*
X407587Y575507D01*
X408807Y574287D01*
X409766Y572851D01*
X410427Y571256D01*
X410493Y570922D01*
X404222Y570922D01*
G37*
%LPD*%
%LPC*%
G36*
X328022Y316922D02*
X328022Y316922D01*
X328022Y323193D01*
X328356Y323127D01*
X329951Y322466D01*
X331387Y321507D01*
X332607Y320287D01*
X333566Y318851D01*
X334227Y317256D01*
X334293Y316922D01*
X328022Y316922D01*
G37*
%LPD*%
%LPC*%
G36*
X404222Y342322D02*
X404222Y342322D01*
X404222Y348593D01*
X404556Y348527D01*
X406151Y347866D01*
X407587Y346907D01*
X408807Y345687D01*
X409766Y344251D01*
X410427Y342656D01*
X410493Y342322D01*
X404222Y342322D01*
G37*
%LPD*%
%LPC*%
G36*
X328022Y342322D02*
X328022Y342322D01*
X328022Y348593D01*
X328356Y348527D01*
X329951Y347866D01*
X331387Y346907D01*
X332607Y345687D01*
X333566Y344251D01*
X334227Y342656D01*
X334293Y342322D01*
X328022Y342322D01*
G37*
%LPD*%
%LPC*%
G36*
X317307Y342322D02*
X317307Y342322D01*
X317373Y342656D01*
X318034Y344251D01*
X318993Y345687D01*
X320213Y346907D01*
X321649Y347866D01*
X323244Y348527D01*
X323578Y348593D01*
X323578Y342322D01*
X317307Y342322D01*
G37*
%LPD*%
%LPC*%
G36*
X328022Y337878D02*
X328022Y337878D01*
X334293Y337878D01*
X334227Y337544D01*
X333566Y335949D01*
X332607Y334513D01*
X331387Y333293D01*
X329951Y332334D01*
X328356Y331673D01*
X328022Y331607D01*
X328022Y337878D01*
G37*
%LPD*%
%LPC*%
G36*
X393507Y342322D02*
X393507Y342322D01*
X393573Y342656D01*
X394234Y344251D01*
X395193Y345687D01*
X396413Y346907D01*
X397849Y347866D01*
X399444Y348527D01*
X399778Y348593D01*
X399778Y342322D01*
X393507Y342322D01*
G37*
%LPD*%
%LPC*%
G36*
X393507Y570922D02*
X393507Y570922D01*
X393573Y571256D01*
X394234Y572851D01*
X395193Y574287D01*
X396413Y575507D01*
X397849Y576466D01*
X399444Y577127D01*
X399778Y577193D01*
X399778Y570922D01*
X393507Y570922D01*
G37*
%LPD*%
%LPC*%
G36*
X328022Y566478D02*
X328022Y566478D01*
X334293Y566478D01*
X334227Y566144D01*
X333566Y564549D01*
X332607Y563113D01*
X331387Y561893D01*
X329951Y560934D01*
X328356Y560273D01*
X328022Y560207D01*
X328022Y566478D01*
G37*
%LPD*%
%LPC*%
G36*
X404222Y337878D02*
X404222Y337878D01*
X410493Y337878D01*
X410427Y337544D01*
X409766Y335949D01*
X408807Y334513D01*
X407587Y333293D01*
X406151Y332334D01*
X404556Y331673D01*
X404222Y331607D01*
X404222Y337878D01*
G37*
%LPD*%
%LPC*%
G36*
X404222Y566478D02*
X404222Y566478D01*
X410493Y566478D01*
X410427Y566144D01*
X409766Y564549D01*
X408807Y563113D01*
X407587Y561893D01*
X406151Y560934D01*
X404556Y560273D01*
X404222Y560207D01*
X404222Y566478D01*
G37*
%LPD*%
%LPC*%
G36*
X317307Y316922D02*
X317307Y316922D01*
X317373Y317256D01*
X318034Y318851D01*
X318993Y320287D01*
X320213Y321507D01*
X321649Y322466D01*
X323244Y323127D01*
X323578Y323193D01*
X323578Y316922D01*
X317307Y316922D01*
G37*
%LPD*%
%LPC*%
G36*
X317307Y570922D02*
X317307Y570922D01*
X317373Y571256D01*
X318034Y572851D01*
X318993Y574287D01*
X320213Y575507D01*
X321649Y576466D01*
X323244Y577127D01*
X323578Y577193D01*
X323578Y570922D01*
X317307Y570922D01*
G37*
%LPD*%
%LPC*%
G36*
X328022Y312478D02*
X328022Y312478D01*
X334293Y312478D01*
X334227Y312144D01*
X333566Y310549D01*
X332607Y309113D01*
X331387Y307893D01*
X329951Y306934D01*
X328356Y306273D01*
X328022Y306207D01*
X328022Y312478D01*
G37*
%LPD*%
%LPC*%
G36*
X323244Y331673D02*
X323244Y331673D01*
X321649Y332334D01*
X320213Y333293D01*
X318993Y334513D01*
X318034Y335949D01*
X317373Y337544D01*
X317307Y337878D01*
X323578Y337878D01*
X323578Y331607D01*
X323244Y331673D01*
G37*
%LPD*%
%LPC*%
G36*
X399444Y560273D02*
X399444Y560273D01*
X397849Y560934D01*
X396413Y561893D01*
X395193Y563113D01*
X394234Y564549D01*
X393573Y566144D01*
X393507Y566478D01*
X399778Y566478D01*
X399778Y560207D01*
X399444Y560273D01*
G37*
%LPD*%
%LPC*%
G36*
X323244Y560273D02*
X323244Y560273D01*
X321649Y560934D01*
X320213Y561893D01*
X318993Y563113D01*
X318034Y564549D01*
X317373Y566144D01*
X317307Y566478D01*
X323578Y566478D01*
X323578Y560207D01*
X323244Y560273D01*
G37*
%LPD*%
%LPC*%
G36*
X399444Y331673D02*
X399444Y331673D01*
X397849Y332334D01*
X396413Y333293D01*
X395193Y334513D01*
X394234Y335949D01*
X393573Y337544D01*
X393507Y337878D01*
X399778Y337878D01*
X399778Y331607D01*
X399444Y331673D01*
G37*
%LPD*%
%LPC*%
G36*
X323244Y306273D02*
X323244Y306273D01*
X321649Y306934D01*
X320213Y307893D01*
X318993Y309113D01*
X318034Y310549D01*
X317373Y312144D01*
X317307Y312478D01*
X323578Y312478D01*
X323578Y306207D01*
X323244Y306273D01*
G37*
%LPD*%
%LPC*%
G36*
X291099Y762399D02*
X291099Y762399D01*
X291099Y762401D01*
X291101Y762401D01*
X291101Y762399D01*
X291099Y762399D01*
G37*
%LPD*%
%LPC*%
G36*
X444229Y764939D02*
X444229Y764939D01*
X444229Y764941D01*
X444231Y764941D01*
X444231Y764939D01*
X444229Y764939D01*
G37*
%LPD*%
%LPC*%
G36*
X569229Y764939D02*
X569229Y764939D01*
X569229Y764941D01*
X569231Y764941D01*
X569231Y764939D01*
X569229Y764939D01*
G37*
%LPD*%
%LPC*%
G36*
X166099Y762399D02*
X166099Y762399D01*
X166099Y762401D01*
X166101Y762401D01*
X166101Y762399D01*
X166099Y762399D01*
G37*
%LPD*%
D10*
X148000Y314700D03*
X148000Y340100D03*
X173400Y314700D03*
X173400Y340100D03*
X198800Y314700D03*
X198800Y340100D03*
X224200Y314700D03*
X224200Y340100D03*
X249600Y314700D03*
X249600Y340100D03*
X275000Y314700D03*
X275000Y340100D03*
X300400Y314700D03*
X300400Y340100D03*
X325800Y314700D03*
X325800Y340100D03*
X351200Y314700D03*
X351200Y340100D03*
X376600Y314700D03*
X376600Y340100D03*
X402000Y314700D03*
X402000Y340100D03*
X427400Y314700D03*
X427400Y340100D03*
X452800Y314700D03*
X452800Y340100D03*
X478200Y314700D03*
X478200Y340100D03*
X503600Y314700D03*
X503600Y340100D03*
X529000Y314700D03*
X529000Y340100D03*
X554400Y314700D03*
X554400Y340100D03*
X579800Y314700D03*
X579800Y340100D03*
X148000Y568700D03*
X148000Y594100D03*
X173400Y568700D03*
X173400Y594100D03*
X198800Y568700D03*
X198800Y594100D03*
X224200Y568700D03*
X224200Y594100D03*
X249600Y568700D03*
X249600Y594100D03*
X275000Y568700D03*
X275000Y594100D03*
X300400Y568700D03*
X300400Y594100D03*
X325800Y568700D03*
X325800Y594100D03*
X351200Y568700D03*
X351200Y594100D03*
X376600Y568700D03*
X376600Y594100D03*
X402000Y568700D03*
X402000Y594100D03*
X427400Y568700D03*
X427400Y594100D03*
X452800Y568700D03*
X452800Y594100D03*
X478200Y568700D03*
X478200Y594100D03*
X503600Y568700D03*
X503600Y594100D03*
X529000Y568700D03*
X529000Y594100D03*
X554400Y568700D03*
X554400Y594100D03*
X579800Y568700D03*
X579800Y594100D03*
D11*
X291100Y812400D03*
X291100Y762400D03*
X166100Y762400D03*
X166100Y812400D03*
X260350Y196850D03*
X260350Y171450D03*
X260350Y222250D03*
X558800Y152400D03*
X558800Y177800D03*
X569230Y814940D03*
X569230Y764940D03*
X444230Y764940D03*
X444230Y814940D03*
D12*
X50800Y50800D03*
X50800Y914400D03*
X685800Y914400D03*
X685800Y50800D03*
D13*
X662940Y763270D03*
X482600Y152400D03*
X228600Y127000D03*
M02*
