G04 EAGLE Gerber RS-274X export*
G75*
%MOMM*%
%FSLAX34Y34*%
%LPD*%
%INCopper Layer 15*%
%IPPOS*%
%AMOC8*
5,1,8,0,0,1.08239X$1,22.5*%
G01*
%ADD10C,1.244600*%
%ADD11C,1.960000*%
%ADD12C,4.191000*%
%ADD13C,0.609600*%

G36*
X732908Y2556D02*
X732908Y2556D01*
X733027Y2563D01*
X733065Y2576D01*
X733106Y2581D01*
X733216Y2624D01*
X733329Y2661D01*
X733364Y2683D01*
X733401Y2698D01*
X733497Y2767D01*
X733598Y2831D01*
X733626Y2861D01*
X733659Y2884D01*
X733735Y2976D01*
X733816Y3063D01*
X733836Y3098D01*
X733861Y3129D01*
X733912Y3237D01*
X733970Y3341D01*
X733980Y3381D01*
X733997Y3417D01*
X734019Y3534D01*
X734049Y3649D01*
X734053Y3709D01*
X734057Y3729D01*
X734055Y3750D01*
X734059Y3810D01*
X734059Y961390D01*
X734044Y961508D01*
X734037Y961627D01*
X734024Y961665D01*
X734019Y961706D01*
X733976Y961816D01*
X733939Y961929D01*
X733917Y961964D01*
X733902Y962001D01*
X733833Y962097D01*
X733769Y962198D01*
X733739Y962226D01*
X733716Y962259D01*
X733624Y962335D01*
X733537Y962416D01*
X733502Y962436D01*
X733471Y962461D01*
X733363Y962512D01*
X733259Y962570D01*
X733219Y962580D01*
X733183Y962597D01*
X733066Y962619D01*
X732951Y962649D01*
X732891Y962653D01*
X732871Y962657D01*
X732850Y962655D01*
X732790Y962659D01*
X3810Y962659D01*
X3692Y962644D01*
X3573Y962637D01*
X3535Y962624D01*
X3494Y962619D01*
X3384Y962576D01*
X3271Y962539D01*
X3236Y962517D01*
X3199Y962502D01*
X3103Y962433D01*
X3002Y962369D01*
X2974Y962339D01*
X2941Y962316D01*
X2865Y962224D01*
X2784Y962137D01*
X2764Y962102D01*
X2739Y962071D01*
X2688Y961963D01*
X2630Y961859D01*
X2620Y961819D01*
X2603Y961783D01*
X2581Y961666D01*
X2551Y961551D01*
X2547Y961491D01*
X2543Y961471D01*
X2545Y961450D01*
X2541Y961390D01*
X2541Y3810D01*
X2556Y3692D01*
X2563Y3573D01*
X2576Y3535D01*
X2581Y3494D01*
X2624Y3384D01*
X2661Y3271D01*
X2683Y3236D01*
X2698Y3199D01*
X2767Y3103D01*
X2831Y3002D01*
X2861Y2974D01*
X2884Y2941D01*
X2976Y2865D01*
X3063Y2784D01*
X3098Y2764D01*
X3129Y2739D01*
X3237Y2688D01*
X3341Y2630D01*
X3381Y2620D01*
X3417Y2603D01*
X3534Y2581D01*
X3649Y2551D01*
X3709Y2547D01*
X3729Y2543D01*
X3750Y2545D01*
X3810Y2541D01*
X732790Y2541D01*
X732908Y2556D01*
G37*
%LPC*%
G36*
X239722Y154939D02*
X239722Y154939D01*
X237489Y157172D01*
X237489Y185728D01*
X239722Y187961D01*
X248775Y187961D01*
X248824Y187967D01*
X248874Y187965D01*
X248981Y187987D01*
X249091Y188001D01*
X249137Y188019D01*
X249185Y188029D01*
X249284Y188077D01*
X249386Y188118D01*
X249426Y188147D01*
X249471Y188169D01*
X249555Y188240D01*
X249644Y188304D01*
X249675Y188343D01*
X249713Y188375D01*
X249776Y188465D01*
X249846Y188549D01*
X249868Y188594D01*
X249896Y188635D01*
X249935Y188738D01*
X249982Y188837D01*
X249991Y188886D01*
X250009Y188932D01*
X250021Y189042D01*
X250042Y189149D01*
X250039Y189199D01*
X250044Y189248D01*
X250029Y189357D01*
X250022Y189467D01*
X250007Y189514D01*
X250000Y189563D01*
X249948Y189716D01*
X248009Y194395D01*
X248009Y199305D01*
X249888Y203840D01*
X253360Y207312D01*
X255932Y208377D01*
X256052Y208446D01*
X256175Y208511D01*
X256190Y208525D01*
X256208Y208535D01*
X256308Y208632D01*
X256411Y208725D01*
X256422Y208742D01*
X256436Y208756D01*
X256509Y208874D01*
X256585Y208991D01*
X256592Y209010D01*
X256603Y209027D01*
X256643Y209160D01*
X256689Y209292D01*
X256690Y209312D01*
X256696Y209331D01*
X256703Y209470D01*
X256714Y209609D01*
X256710Y209629D01*
X256711Y209649D01*
X256683Y209785D01*
X256659Y209922D01*
X256651Y209941D01*
X256647Y209960D01*
X256586Y210085D01*
X256529Y210212D01*
X256516Y210228D01*
X256507Y210246D01*
X256417Y210352D01*
X256330Y210460D01*
X256314Y210473D01*
X256301Y210488D01*
X256187Y210568D01*
X256076Y210652D01*
X256051Y210664D01*
X256041Y210671D01*
X256022Y210678D01*
X255932Y210723D01*
X253360Y211788D01*
X249888Y215260D01*
X248009Y219795D01*
X248009Y224705D01*
X249888Y229240D01*
X253360Y232712D01*
X257895Y234591D01*
X262805Y234591D01*
X267340Y232712D01*
X270812Y229240D01*
X272691Y224705D01*
X272691Y219795D01*
X270812Y215260D01*
X267340Y211788D01*
X264768Y210723D01*
X264648Y210654D01*
X264525Y210589D01*
X264510Y210575D01*
X264492Y210565D01*
X264392Y210468D01*
X264289Y210375D01*
X264278Y210358D01*
X264264Y210344D01*
X264191Y210225D01*
X264115Y210109D01*
X264108Y210090D01*
X264097Y210073D01*
X264056Y209940D01*
X264011Y209808D01*
X264010Y209788D01*
X264004Y209769D01*
X263997Y209630D01*
X263986Y209491D01*
X263990Y209471D01*
X263989Y209451D01*
X264017Y209315D01*
X264041Y209178D01*
X264049Y209159D01*
X264053Y209140D01*
X264114Y209014D01*
X264171Y208888D01*
X264184Y208872D01*
X264193Y208854D01*
X264283Y208748D01*
X264370Y208640D01*
X264386Y208627D01*
X264399Y208612D01*
X264513Y208532D01*
X264624Y208448D01*
X264649Y208436D01*
X264659Y208429D01*
X264678Y208422D01*
X264768Y208377D01*
X267340Y207312D01*
X270812Y203840D01*
X272691Y199305D01*
X272691Y194395D01*
X270752Y189716D01*
X270739Y189668D01*
X270718Y189623D01*
X270697Y189515D01*
X270668Y189409D01*
X270668Y189359D01*
X270658Y189310D01*
X270665Y189201D01*
X270663Y189091D01*
X270675Y189043D01*
X270678Y188993D01*
X270712Y188889D01*
X270738Y188782D01*
X270761Y188738D01*
X270776Y188691D01*
X270835Y188598D01*
X270886Y188501D01*
X270920Y188464D01*
X270946Y188422D01*
X271026Y188347D01*
X271100Y188265D01*
X271142Y188238D01*
X271178Y188204D01*
X271274Y188151D01*
X271366Y188091D01*
X271413Y188074D01*
X271456Y188050D01*
X271563Y188023D01*
X271667Y187987D01*
X271716Y187983D01*
X271764Y187971D01*
X271925Y187961D01*
X296346Y187961D01*
X296444Y187973D01*
X296543Y187976D01*
X296601Y187993D01*
X296661Y188001D01*
X296753Y188037D01*
X296849Y188065D01*
X296901Y188095D01*
X296957Y188118D01*
X297037Y188176D01*
X297122Y188226D01*
X297198Y188292D01*
X297214Y188304D01*
X297222Y188314D01*
X297243Y188332D01*
X408568Y299657D01*
X408628Y299735D01*
X408696Y299807D01*
X408725Y299860D01*
X408762Y299908D01*
X408802Y299999D01*
X408850Y300086D01*
X408865Y300144D01*
X408889Y300200D01*
X408904Y300298D01*
X408929Y300393D01*
X408935Y300494D01*
X408939Y300514D01*
X408937Y300526D01*
X408939Y300554D01*
X408939Y306189D01*
X408933Y306238D01*
X408935Y306288D01*
X408913Y306395D01*
X408899Y306505D01*
X408881Y306551D01*
X408871Y306599D01*
X408823Y306698D01*
X408782Y306800D01*
X408753Y306840D01*
X408731Y306885D01*
X408660Y306969D01*
X408596Y307058D01*
X408557Y307089D01*
X408525Y307127D01*
X408435Y307190D01*
X408351Y307260D01*
X408306Y307282D01*
X408265Y307310D01*
X408162Y307349D01*
X408063Y307396D01*
X408014Y307405D01*
X407968Y307423D01*
X407858Y307435D01*
X407751Y307456D01*
X407701Y307453D01*
X407652Y307458D01*
X407543Y307443D01*
X407433Y307436D01*
X407386Y307421D01*
X407337Y307414D01*
X407184Y307362D01*
X403743Y305936D01*
X400257Y305936D01*
X397036Y307270D01*
X394570Y309736D01*
X393236Y312957D01*
X393236Y316443D01*
X394570Y319664D01*
X397036Y322130D01*
X400257Y323464D01*
X403743Y323464D01*
X407184Y322038D01*
X407232Y322025D01*
X407277Y322004D01*
X407385Y321983D01*
X407491Y321954D01*
X407541Y321954D01*
X407590Y321944D01*
X407699Y321951D01*
X407809Y321949D01*
X407857Y321961D01*
X407907Y321964D01*
X408011Y321998D01*
X408118Y322024D01*
X408162Y322047D01*
X408209Y322062D01*
X408302Y322121D01*
X408399Y322172D01*
X408436Y322206D01*
X408478Y322232D01*
X408553Y322312D01*
X408635Y322386D01*
X408662Y322428D01*
X408696Y322464D01*
X408749Y322560D01*
X408809Y322652D01*
X408826Y322699D01*
X408850Y322742D01*
X408877Y322849D01*
X408913Y322953D01*
X408917Y323002D01*
X408929Y323050D01*
X408939Y323211D01*
X408939Y331589D01*
X408933Y331638D01*
X408935Y331688D01*
X408913Y331795D01*
X408899Y331905D01*
X408881Y331951D01*
X408871Y331999D01*
X408823Y332098D01*
X408782Y332200D01*
X408753Y332240D01*
X408731Y332285D01*
X408660Y332369D01*
X408596Y332458D01*
X408557Y332489D01*
X408525Y332527D01*
X408435Y332590D01*
X408351Y332660D01*
X408306Y332682D01*
X408265Y332710D01*
X408162Y332749D01*
X408063Y332796D01*
X408014Y332805D01*
X407968Y332823D01*
X407858Y332835D01*
X407751Y332856D01*
X407701Y332853D01*
X407652Y332858D01*
X407543Y332843D01*
X407433Y332836D01*
X407386Y332821D01*
X407337Y332814D01*
X407184Y332762D01*
X403743Y331336D01*
X400257Y331336D01*
X397036Y332670D01*
X394570Y335136D01*
X393236Y338357D01*
X393236Y341843D01*
X394570Y345064D01*
X397036Y347530D01*
X400257Y348864D01*
X403743Y348864D01*
X407184Y347438D01*
X407232Y347425D01*
X407277Y347404D01*
X407385Y347383D01*
X407491Y347354D01*
X407541Y347354D01*
X407590Y347344D01*
X407699Y347351D01*
X407809Y347349D01*
X407857Y347361D01*
X407907Y347364D01*
X408011Y347398D01*
X408118Y347424D01*
X408162Y347447D01*
X408209Y347462D01*
X408302Y347521D01*
X408399Y347572D01*
X408436Y347606D01*
X408478Y347632D01*
X408553Y347712D01*
X408635Y347786D01*
X408662Y347828D01*
X408696Y347864D01*
X408749Y347960D01*
X408809Y348052D01*
X408826Y348099D01*
X408850Y348142D01*
X408877Y348249D01*
X408913Y348353D01*
X408917Y348402D01*
X408929Y348450D01*
X408939Y348611D01*
X408939Y350828D01*
X411172Y353061D01*
X439728Y353061D01*
X441961Y350828D01*
X441961Y343213D01*
X441969Y343144D01*
X441968Y343074D01*
X441989Y342987D01*
X442001Y342898D01*
X442026Y342833D01*
X442043Y342765D01*
X442085Y342686D01*
X442118Y342602D01*
X442159Y342546D01*
X442191Y342484D01*
X442252Y342418D01*
X442304Y342345D01*
X442358Y342300D01*
X442405Y342249D01*
X442480Y342199D01*
X442549Y342142D01*
X442613Y342112D01*
X442671Y342074D01*
X442756Y342045D01*
X442837Y342006D01*
X442906Y341993D01*
X442972Y341971D01*
X443061Y341964D01*
X443149Y341947D01*
X443219Y341951D01*
X443289Y341945D01*
X443377Y341961D01*
X443467Y341966D01*
X443533Y341988D01*
X443602Y342000D01*
X443684Y342037D01*
X443769Y342064D01*
X443828Y342102D01*
X443892Y342130D01*
X443962Y342186D01*
X444038Y342235D01*
X444086Y342285D01*
X444140Y342329D01*
X444195Y342401D01*
X444256Y342466D01*
X444290Y342527D01*
X444332Y342583D01*
X444403Y342728D01*
X445370Y345064D01*
X447836Y347530D01*
X451057Y348864D01*
X454543Y348864D01*
X457764Y347530D01*
X460230Y345064D01*
X461564Y341843D01*
X461564Y338357D01*
X460230Y335136D01*
X457764Y332670D01*
X454543Y331336D01*
X451057Y331336D01*
X447836Y332670D01*
X445370Y335136D01*
X444403Y337472D01*
X444368Y337533D01*
X444342Y337598D01*
X444290Y337670D01*
X444245Y337749D01*
X444196Y337799D01*
X444156Y337855D01*
X444086Y337912D01*
X444024Y337977D01*
X443964Y338014D01*
X443911Y338058D01*
X443829Y338096D01*
X443753Y338143D01*
X443686Y338164D01*
X443623Y338194D01*
X443535Y338210D01*
X443449Y338237D01*
X443379Y338240D01*
X443310Y338253D01*
X443221Y338248D01*
X443131Y338252D01*
X443063Y338238D01*
X442993Y338234D01*
X442908Y338206D01*
X442820Y338188D01*
X442757Y338157D01*
X442691Y338136D01*
X442615Y338088D01*
X442534Y338048D01*
X442481Y338003D01*
X442422Y337965D01*
X442360Y337900D01*
X442292Y337842D01*
X442252Y337785D01*
X442204Y337734D01*
X442161Y337655D01*
X442109Y337582D01*
X442084Y337516D01*
X442050Y337455D01*
X442028Y337368D01*
X441996Y337284D01*
X441988Y337215D01*
X441971Y337147D01*
X441961Y336987D01*
X441961Y317813D01*
X441969Y317744D01*
X441968Y317674D01*
X441989Y317587D01*
X442001Y317498D01*
X442026Y317433D01*
X442043Y317365D01*
X442085Y317286D01*
X442118Y317202D01*
X442159Y317146D01*
X442191Y317084D01*
X442252Y317018D01*
X442304Y316945D01*
X442358Y316900D01*
X442405Y316849D01*
X442480Y316799D01*
X442549Y316742D01*
X442613Y316712D01*
X442671Y316674D01*
X442756Y316645D01*
X442837Y316606D01*
X442906Y316593D01*
X442972Y316571D01*
X443061Y316564D01*
X443149Y316547D01*
X443219Y316551D01*
X443289Y316545D01*
X443377Y316561D01*
X443467Y316566D01*
X443533Y316588D01*
X443602Y316600D01*
X443684Y316637D01*
X443769Y316664D01*
X443828Y316702D01*
X443892Y316730D01*
X443962Y316786D01*
X444038Y316835D01*
X444086Y316885D01*
X444140Y316929D01*
X444195Y317001D01*
X444256Y317066D01*
X444290Y317127D01*
X444332Y317183D01*
X444403Y317328D01*
X445370Y319664D01*
X447836Y322130D01*
X451057Y323464D01*
X454543Y323464D01*
X457764Y322130D01*
X460230Y319664D01*
X461564Y316443D01*
X461564Y312957D01*
X460230Y309736D01*
X457764Y307270D01*
X454543Y305936D01*
X451057Y305936D01*
X447836Y307270D01*
X445370Y309736D01*
X444403Y312072D01*
X444368Y312133D01*
X444342Y312198D01*
X444290Y312270D01*
X444245Y312349D01*
X444196Y312399D01*
X444156Y312455D01*
X444086Y312512D01*
X444024Y312577D01*
X443964Y312614D01*
X443911Y312658D01*
X443829Y312696D01*
X443753Y312743D01*
X443686Y312764D01*
X443623Y312794D01*
X443535Y312810D01*
X443449Y312837D01*
X443379Y312840D01*
X443310Y312853D01*
X443221Y312848D01*
X443131Y312852D01*
X443063Y312838D01*
X442993Y312834D01*
X442908Y312806D01*
X442820Y312788D01*
X442757Y312757D01*
X442691Y312736D01*
X442615Y312688D01*
X442534Y312648D01*
X442481Y312603D01*
X442422Y312565D01*
X442360Y312500D01*
X442292Y312442D01*
X442252Y312385D01*
X442204Y312334D01*
X442161Y312255D01*
X442109Y312182D01*
X442084Y312116D01*
X442050Y312055D01*
X442028Y311968D01*
X441996Y311884D01*
X441988Y311815D01*
X441971Y311747D01*
X441961Y311587D01*
X441961Y296872D01*
X300028Y154939D01*
X239722Y154939D01*
G37*
%LPD*%
G36*
X298548Y157493D02*
X298548Y157493D01*
X298647Y157496D01*
X298705Y157513D01*
X298766Y157521D01*
X298858Y157557D01*
X298953Y157585D01*
X299005Y157615D01*
X299061Y157638D01*
X299141Y157696D01*
X299227Y157746D01*
X299302Y157812D01*
X299319Y157824D01*
X299326Y157834D01*
X299348Y157853D01*
X439048Y297553D01*
X439108Y297631D01*
X439176Y297703D01*
X439205Y297756D01*
X439242Y297804D01*
X439282Y297895D01*
X439330Y297981D01*
X439345Y298040D01*
X439369Y298096D01*
X439384Y298194D01*
X439409Y298289D01*
X439415Y298389D01*
X439419Y298410D01*
X439417Y298422D01*
X439419Y298450D01*
X439419Y349250D01*
X439404Y349368D01*
X439397Y349487D01*
X439384Y349525D01*
X439379Y349566D01*
X439336Y349676D01*
X439299Y349789D01*
X439277Y349824D01*
X439262Y349861D01*
X439193Y349957D01*
X439129Y350058D01*
X439099Y350086D01*
X439076Y350119D01*
X438984Y350195D01*
X438897Y350276D01*
X438862Y350296D01*
X438831Y350321D01*
X438723Y350372D01*
X438619Y350430D01*
X438579Y350440D01*
X438543Y350457D01*
X438426Y350479D01*
X438311Y350509D01*
X438251Y350513D01*
X438231Y350517D01*
X438210Y350515D01*
X438150Y350519D01*
X431527Y350519D01*
X431458Y350511D01*
X431388Y350512D01*
X431301Y350491D01*
X431212Y350479D01*
X431147Y350454D01*
X431079Y350437D01*
X431000Y350395D01*
X430916Y350362D01*
X430860Y350321D01*
X430798Y350289D01*
X430732Y350228D01*
X430659Y350176D01*
X430614Y350122D01*
X430563Y350075D01*
X430513Y350000D01*
X430456Y349931D01*
X430426Y349867D01*
X430388Y349809D01*
X430359Y349724D01*
X430320Y349643D01*
X430307Y349574D01*
X430285Y349508D01*
X430278Y349419D01*
X430261Y349331D01*
X430265Y349261D01*
X430259Y349191D01*
X430275Y349103D01*
X430280Y349013D01*
X430302Y348947D01*
X430314Y348878D01*
X430351Y348796D01*
X430378Y348711D01*
X430416Y348652D01*
X430444Y348588D01*
X430501Y348518D01*
X430549Y348442D01*
X430599Y348394D01*
X430643Y348340D01*
X430715Y348286D01*
X430780Y348224D01*
X430841Y348190D01*
X430897Y348148D01*
X431042Y348077D01*
X431551Y347866D01*
X432987Y346907D01*
X434207Y345687D01*
X435166Y344251D01*
X435827Y342656D01*
X435893Y342322D01*
X428353Y342322D01*
X428234Y342307D01*
X428116Y342299D01*
X428077Y342287D01*
X428037Y342282D01*
X427926Y342238D01*
X427813Y342201D01*
X427779Y342180D01*
X427741Y342165D01*
X427645Y342095D01*
X427545Y342031D01*
X427517Y342002D01*
X427484Y341978D01*
X427408Y341886D01*
X427404Y341882D01*
X427397Y341888D01*
X427373Y341921D01*
X427281Y341997D01*
X427194Y342079D01*
X427159Y342098D01*
X427128Y342124D01*
X427020Y342175D01*
X426916Y342232D01*
X426877Y342242D01*
X426840Y342259D01*
X426723Y342282D01*
X426608Y342312D01*
X426548Y342315D01*
X426528Y342319D01*
X426507Y342318D01*
X426447Y342322D01*
X418907Y342322D01*
X418973Y342656D01*
X419634Y344251D01*
X420593Y345687D01*
X421813Y346907D01*
X423249Y347866D01*
X423758Y348077D01*
X423819Y348112D01*
X423884Y348138D01*
X423956Y348190D01*
X424035Y348235D01*
X424085Y348283D01*
X424141Y348324D01*
X424199Y348394D01*
X424263Y348456D01*
X424299Y348516D01*
X424344Y348569D01*
X424382Y348651D01*
X424429Y348727D01*
X424450Y348794D01*
X424480Y348857D01*
X424496Y348945D01*
X424523Y349031D01*
X424526Y349101D01*
X424539Y349170D01*
X424534Y349259D01*
X424538Y349349D01*
X424524Y349417D01*
X424520Y349487D01*
X424492Y349572D01*
X424474Y349660D01*
X424443Y349723D01*
X424422Y349789D01*
X424374Y349865D01*
X424334Y349946D01*
X424289Y349999D01*
X424251Y350058D01*
X424186Y350120D01*
X424128Y350188D01*
X424071Y350228D01*
X424020Y350276D01*
X423941Y350319D01*
X423868Y350371D01*
X423802Y350396D01*
X423741Y350430D01*
X423654Y350452D01*
X423570Y350484D01*
X423501Y350492D01*
X423433Y350509D01*
X423273Y350519D01*
X412750Y350519D01*
X412632Y350504D01*
X412513Y350497D01*
X412475Y350484D01*
X412434Y350479D01*
X412324Y350436D01*
X412211Y350399D01*
X412176Y350377D01*
X412139Y350362D01*
X412043Y350293D01*
X411942Y350229D01*
X411914Y350199D01*
X411881Y350176D01*
X411806Y350084D01*
X411724Y349997D01*
X411704Y349962D01*
X411679Y349931D01*
X411628Y349823D01*
X411570Y349719D01*
X411560Y349679D01*
X411543Y349643D01*
X411521Y349526D01*
X411491Y349411D01*
X411487Y349351D01*
X411483Y349331D01*
X411485Y349310D01*
X411481Y349250D01*
X411481Y298976D01*
X297924Y185419D01*
X265306Y185419D01*
X265188Y185404D01*
X265069Y185397D01*
X265031Y185384D01*
X264991Y185379D01*
X264880Y185335D01*
X264766Y185299D01*
X264732Y185277D01*
X264695Y185262D01*
X264599Y185192D01*
X264498Y185128D01*
X264470Y185099D01*
X264438Y185076D01*
X264362Y184984D01*
X264280Y184897D01*
X264260Y184861D01*
X264235Y184831D01*
X264184Y184723D01*
X264126Y184618D01*
X264116Y184579D01*
X264099Y184543D01*
X264077Y184426D01*
X264047Y184310D01*
X264047Y184270D01*
X264040Y184231D01*
X264047Y184111D01*
X264047Y183992D01*
X264057Y183953D01*
X264059Y183913D01*
X264096Y183800D01*
X264126Y183684D01*
X264145Y183649D01*
X264157Y183611D01*
X264221Y183510D01*
X264279Y183405D01*
X264306Y183376D01*
X264327Y183342D01*
X264414Y183260D01*
X264496Y183173D01*
X264530Y183151D01*
X264559Y183124D01*
X264664Y183066D01*
X264764Y183002D01*
X264820Y182980D01*
X264838Y182970D01*
X264857Y182965D01*
X264914Y182943D01*
X265087Y182887D01*
X266818Y182005D01*
X268389Y180863D01*
X269763Y179489D01*
X270905Y177918D01*
X271787Y176187D01*
X272387Y174340D01*
X272442Y173989D01*
X261620Y173989D01*
X261502Y173974D01*
X261383Y173967D01*
X261345Y173954D01*
X261305Y173949D01*
X261194Y173906D01*
X261081Y173869D01*
X261047Y173847D01*
X261009Y173832D01*
X260913Y173762D01*
X260812Y173699D01*
X260784Y173669D01*
X260752Y173645D01*
X260676Y173554D01*
X260594Y173467D01*
X260575Y173432D01*
X260549Y173401D01*
X260498Y173293D01*
X260441Y173189D01*
X260430Y173149D01*
X260413Y173113D01*
X260391Y172996D01*
X260361Y172881D01*
X260357Y172820D01*
X260353Y172800D01*
X260354Y172794D01*
X260353Y172792D01*
X260354Y172776D01*
X260351Y172720D01*
X260351Y170180D01*
X260366Y170062D01*
X260373Y169943D01*
X260386Y169905D01*
X260391Y169864D01*
X260435Y169754D01*
X260471Y169641D01*
X260493Y169606D01*
X260508Y169569D01*
X260578Y169473D01*
X260641Y169372D01*
X260671Y169344D01*
X260695Y169311D01*
X260786Y169236D01*
X260873Y169154D01*
X260908Y169134D01*
X260940Y169109D01*
X261047Y169058D01*
X261152Y169000D01*
X261191Y168990D01*
X261227Y168973D01*
X261344Y168951D01*
X261459Y168921D01*
X261520Y168917D01*
X261540Y168913D01*
X261560Y168915D01*
X261620Y168911D01*
X272442Y168911D01*
X272387Y168560D01*
X271787Y166713D01*
X270905Y164982D01*
X269763Y163411D01*
X268389Y162037D01*
X266818Y160895D01*
X265087Y160013D01*
X264914Y159957D01*
X264806Y159906D01*
X264695Y159862D01*
X264663Y159839D01*
X264626Y159822D01*
X264534Y159746D01*
X264438Y159676D01*
X264412Y159645D01*
X264381Y159619D01*
X264311Y159523D01*
X264235Y159431D01*
X264218Y159394D01*
X264194Y159362D01*
X264150Y159251D01*
X264099Y159143D01*
X264092Y159104D01*
X264077Y159066D01*
X264062Y158948D01*
X264040Y158831D01*
X264042Y158791D01*
X264037Y158751D01*
X264052Y158632D01*
X264059Y158513D01*
X264072Y158475D01*
X264077Y158435D01*
X264121Y158324D01*
X264157Y158211D01*
X264179Y158177D01*
X264193Y158139D01*
X264264Y158043D01*
X264327Y157942D01*
X264357Y157914D01*
X264380Y157882D01*
X264472Y157806D01*
X264559Y157724D01*
X264594Y157705D01*
X264625Y157679D01*
X264733Y157628D01*
X264838Y157570D01*
X264876Y157560D01*
X264913Y157543D01*
X265030Y157521D01*
X265146Y157491D01*
X265205Y157487D01*
X265225Y157483D01*
X265245Y157485D01*
X265306Y157481D01*
X298450Y157481D01*
X298548Y157493D01*
G37*
%LPC*%
G36*
X46126Y27304D02*
X46126Y27304D01*
X37491Y30881D01*
X30881Y37491D01*
X27304Y46126D01*
X27304Y55474D01*
X30881Y64109D01*
X37491Y70719D01*
X46126Y74296D01*
X55474Y74296D01*
X64109Y70719D01*
X70719Y64109D01*
X74296Y55474D01*
X74296Y46126D01*
X70719Y37491D01*
X64109Y30881D01*
X55474Y27304D01*
X46126Y27304D01*
G37*
%LPD*%
%LPC*%
G36*
X681126Y27304D02*
X681126Y27304D01*
X672491Y30881D01*
X665881Y37491D01*
X662304Y46126D01*
X662304Y55474D01*
X665881Y64109D01*
X672491Y70719D01*
X681126Y74296D01*
X690474Y74296D01*
X699109Y70719D01*
X705719Y64109D01*
X709296Y55474D01*
X709296Y46126D01*
X705719Y37491D01*
X699109Y30881D01*
X690474Y27304D01*
X681126Y27304D01*
G37*
%LPD*%
%LPC*%
G36*
X681126Y890904D02*
X681126Y890904D01*
X672491Y894481D01*
X665881Y901091D01*
X662304Y909726D01*
X662304Y919074D01*
X665881Y927709D01*
X672491Y934319D01*
X681126Y937896D01*
X690474Y937896D01*
X699109Y934319D01*
X705719Y927709D01*
X709296Y919074D01*
X709296Y909726D01*
X705719Y901091D01*
X699109Y894481D01*
X690474Y890904D01*
X681126Y890904D01*
G37*
%LPD*%
%LPC*%
G36*
X46126Y890904D02*
X46126Y890904D01*
X37491Y894481D01*
X30881Y901091D01*
X27304Y909726D01*
X27304Y919074D01*
X30881Y927709D01*
X37491Y934319D01*
X46126Y937896D01*
X55474Y937896D01*
X64109Y934319D01*
X70719Y927709D01*
X74296Y919074D01*
X74296Y909726D01*
X70719Y901091D01*
X64109Y894481D01*
X55474Y890904D01*
X46126Y890904D01*
G37*
%LPD*%
%LPC*%
G36*
X556345Y140059D02*
X556345Y140059D01*
X551810Y141938D01*
X548338Y145410D01*
X546459Y149945D01*
X546459Y154855D01*
X548338Y159390D01*
X551810Y162862D01*
X554382Y163927D01*
X554502Y163996D01*
X554625Y164061D01*
X554640Y164075D01*
X554658Y164085D01*
X554758Y164182D01*
X554861Y164275D01*
X554872Y164292D01*
X554886Y164306D01*
X554959Y164424D01*
X555035Y164541D01*
X555042Y164560D01*
X555053Y164577D01*
X555093Y164710D01*
X555139Y164842D01*
X555140Y164862D01*
X555146Y164881D01*
X555153Y165020D01*
X555164Y165159D01*
X555160Y165179D01*
X555161Y165199D01*
X555133Y165335D01*
X555109Y165472D01*
X555101Y165490D01*
X555097Y165510D01*
X555036Y165636D01*
X554979Y165762D01*
X554966Y165778D01*
X554957Y165796D01*
X554867Y165902D01*
X554780Y166010D01*
X554764Y166023D01*
X554751Y166038D01*
X554637Y166118D01*
X554526Y166202D01*
X554501Y166214D01*
X554491Y166221D01*
X554472Y166228D01*
X554382Y166273D01*
X551810Y167338D01*
X548338Y170810D01*
X546459Y175345D01*
X546459Y180255D01*
X548338Y184790D01*
X551810Y188262D01*
X556345Y190141D01*
X561255Y190141D01*
X565790Y188262D01*
X569262Y184790D01*
X571141Y180255D01*
X571141Y175345D01*
X569262Y170810D01*
X565790Y167338D01*
X563218Y166273D01*
X563098Y166204D01*
X562975Y166139D01*
X562960Y166125D01*
X562942Y166115D01*
X562842Y166018D01*
X562739Y165925D01*
X562728Y165908D01*
X562714Y165894D01*
X562641Y165775D01*
X562565Y165659D01*
X562558Y165640D01*
X562547Y165623D01*
X562507Y165490D01*
X562461Y165358D01*
X562460Y165338D01*
X562454Y165319D01*
X562447Y165180D01*
X562436Y165041D01*
X562440Y165021D01*
X562439Y165001D01*
X562467Y164865D01*
X562491Y164728D01*
X562499Y164709D01*
X562503Y164690D01*
X562564Y164564D01*
X562621Y164438D01*
X562634Y164422D01*
X562643Y164404D01*
X562733Y164298D01*
X562820Y164190D01*
X562836Y164177D01*
X562849Y164162D01*
X562963Y164082D01*
X563074Y163998D01*
X563099Y163986D01*
X563109Y163979D01*
X563128Y163972D01*
X563218Y163927D01*
X565790Y162862D01*
X569262Y159390D01*
X571141Y154855D01*
X571141Y149945D01*
X569262Y145410D01*
X565790Y141938D01*
X561255Y140059D01*
X556345Y140059D01*
G37*
%LPD*%
%LPC*%
G36*
X566775Y752599D02*
X566775Y752599D01*
X562240Y754478D01*
X558768Y757950D01*
X556889Y762485D01*
X556889Y767395D01*
X558768Y771930D01*
X562240Y775402D01*
X566775Y777281D01*
X571685Y777281D01*
X576220Y775402D01*
X579692Y771930D01*
X581571Y767395D01*
X581571Y762485D01*
X579692Y757950D01*
X576220Y754478D01*
X571685Y752599D01*
X566775Y752599D01*
G37*
%LPD*%
%LPC*%
G36*
X163645Y750059D02*
X163645Y750059D01*
X159110Y751938D01*
X155638Y755410D01*
X153759Y759945D01*
X153759Y764855D01*
X155638Y769390D01*
X159110Y772862D01*
X163645Y774741D01*
X168555Y774741D01*
X173090Y772862D01*
X176562Y769390D01*
X178441Y764855D01*
X178441Y759945D01*
X176562Y755410D01*
X173090Y751938D01*
X168555Y750059D01*
X163645Y750059D01*
G37*
%LPD*%
%LPC*%
G36*
X288645Y750059D02*
X288645Y750059D01*
X284110Y751938D01*
X280638Y755410D01*
X278759Y759945D01*
X278759Y764855D01*
X280638Y769390D01*
X284110Y772862D01*
X288645Y774741D01*
X293555Y774741D01*
X298090Y772862D01*
X301562Y769390D01*
X303441Y764855D01*
X303441Y759945D01*
X301562Y755410D01*
X298090Y751938D01*
X293555Y750059D01*
X288645Y750059D01*
G37*
%LPD*%
%LPC*%
G36*
X441775Y752599D02*
X441775Y752599D01*
X437240Y754478D01*
X433768Y757950D01*
X431889Y762485D01*
X431889Y767395D01*
X433768Y771930D01*
X437240Y775402D01*
X441775Y777281D01*
X446685Y777281D01*
X451220Y775402D01*
X454692Y771930D01*
X456571Y767395D01*
X456571Y762485D01*
X454692Y757950D01*
X451220Y754478D01*
X446685Y752599D01*
X441775Y752599D01*
G37*
%LPD*%
%LPC*%
G36*
X441775Y802599D02*
X441775Y802599D01*
X437240Y804478D01*
X433768Y807950D01*
X431889Y812485D01*
X431889Y817395D01*
X433768Y821930D01*
X437240Y825402D01*
X441775Y827281D01*
X446685Y827281D01*
X451220Y825402D01*
X454692Y821930D01*
X456571Y817395D01*
X456571Y812485D01*
X454692Y807950D01*
X451220Y804478D01*
X446685Y802599D01*
X441775Y802599D01*
G37*
%LPD*%
%LPC*%
G36*
X288645Y800059D02*
X288645Y800059D01*
X284110Y801938D01*
X280638Y805410D01*
X278759Y809945D01*
X278759Y814855D01*
X280638Y819390D01*
X284110Y822862D01*
X288645Y824741D01*
X293555Y824741D01*
X298090Y822862D01*
X301562Y819390D01*
X303441Y814855D01*
X303441Y809945D01*
X301562Y805410D01*
X298090Y801938D01*
X293555Y800059D01*
X288645Y800059D01*
G37*
%LPD*%
%LPC*%
G36*
X163645Y800059D02*
X163645Y800059D01*
X159110Y801938D01*
X155638Y805410D01*
X153759Y809945D01*
X153759Y814855D01*
X155638Y819390D01*
X159110Y822862D01*
X163645Y824741D01*
X168555Y824741D01*
X173090Y822862D01*
X176562Y819390D01*
X178441Y814855D01*
X178441Y809945D01*
X176562Y805410D01*
X173090Y801938D01*
X168555Y800059D01*
X163645Y800059D01*
G37*
%LPD*%
%LPC*%
G36*
X566775Y802599D02*
X566775Y802599D01*
X562240Y804478D01*
X558768Y807950D01*
X556889Y812485D01*
X556889Y817395D01*
X558768Y821930D01*
X562240Y825402D01*
X566775Y827281D01*
X571685Y827281D01*
X576220Y825402D01*
X579692Y821930D01*
X581571Y817395D01*
X581571Y812485D01*
X579692Y807950D01*
X576220Y804478D01*
X571685Y802599D01*
X566775Y802599D01*
G37*
%LPD*%
G36*
X255512Y157496D02*
X255512Y157496D01*
X255631Y157503D01*
X255670Y157516D01*
X255709Y157521D01*
X255820Y157564D01*
X255934Y157601D01*
X255968Y157623D01*
X256005Y157638D01*
X256102Y157708D01*
X256203Y157772D01*
X256230Y157801D01*
X256262Y157824D01*
X256339Y157917D01*
X256420Y158004D01*
X256440Y158039D01*
X256465Y158069D01*
X256516Y158177D01*
X256574Y158282D01*
X256584Y158321D01*
X256601Y158357D01*
X256623Y158474D01*
X256653Y158590D01*
X256653Y158630D01*
X256660Y158670D01*
X256653Y158789D01*
X256653Y158908D01*
X256643Y158947D01*
X256641Y158987D01*
X256604Y159100D01*
X256574Y159216D01*
X256555Y159251D01*
X256543Y159289D01*
X256479Y159390D01*
X256421Y159495D01*
X256394Y159524D01*
X256373Y159558D01*
X256285Y159640D01*
X256204Y159727D01*
X256170Y159749D01*
X256141Y159776D01*
X256036Y159834D01*
X255936Y159898D01*
X255880Y159920D01*
X255862Y159930D01*
X255843Y159935D01*
X255786Y159957D01*
X255613Y160013D01*
X253882Y160895D01*
X252311Y162037D01*
X250937Y163411D01*
X249795Y164982D01*
X248913Y166713D01*
X248313Y168560D01*
X248258Y168911D01*
X259080Y168911D01*
X259198Y168926D01*
X259317Y168933D01*
X259355Y168946D01*
X259395Y168951D01*
X259506Y168994D01*
X259619Y169031D01*
X259653Y169053D01*
X259691Y169068D01*
X259787Y169138D01*
X259888Y169201D01*
X259916Y169231D01*
X259948Y169254D01*
X260024Y169346D01*
X260106Y169433D01*
X260125Y169468D01*
X260151Y169499D01*
X260202Y169607D01*
X260259Y169711D01*
X260270Y169751D01*
X260287Y169787D01*
X260309Y169904D01*
X260339Y170019D01*
X260343Y170080D01*
X260347Y170100D01*
X260345Y170120D01*
X260349Y170180D01*
X260349Y172720D01*
X260334Y172838D01*
X260327Y172957D01*
X260314Y172995D01*
X260309Y173035D01*
X260265Y173146D01*
X260229Y173259D01*
X260207Y173294D01*
X260192Y173331D01*
X260122Y173427D01*
X260059Y173528D01*
X260029Y173556D01*
X260005Y173589D01*
X259914Y173664D01*
X259827Y173746D01*
X259792Y173766D01*
X259760Y173791D01*
X259653Y173842D01*
X259548Y173900D01*
X259509Y173910D01*
X259473Y173927D01*
X259356Y173949D01*
X259241Y173979D01*
X259180Y173983D01*
X259160Y173987D01*
X259140Y173985D01*
X259080Y173989D01*
X248258Y173989D01*
X248313Y174340D01*
X248913Y176187D01*
X249795Y177918D01*
X250937Y179489D01*
X252311Y180863D01*
X253882Y182005D01*
X255613Y182887D01*
X255786Y182943D01*
X255894Y182994D01*
X256005Y183038D01*
X256037Y183061D01*
X256074Y183078D01*
X256166Y183154D01*
X256262Y183224D01*
X256288Y183255D01*
X256319Y183281D01*
X256389Y183377D01*
X256465Y183469D01*
X256482Y183506D01*
X256506Y183538D01*
X256550Y183649D01*
X256601Y183757D01*
X256608Y183796D01*
X256623Y183834D01*
X256638Y183953D01*
X256660Y184070D01*
X256658Y184110D01*
X256663Y184149D01*
X256648Y184268D01*
X256641Y184387D01*
X256628Y184425D01*
X256623Y184465D01*
X256579Y184576D01*
X256543Y184689D01*
X256521Y184723D01*
X256506Y184761D01*
X256436Y184857D01*
X256373Y184958D01*
X256343Y184986D01*
X256320Y185018D01*
X256228Y185094D01*
X256141Y185176D01*
X256106Y185195D01*
X256075Y185221D01*
X255967Y185272D01*
X255862Y185330D01*
X255824Y185340D01*
X255787Y185357D01*
X255670Y185379D01*
X255554Y185409D01*
X255495Y185413D01*
X255475Y185417D01*
X255454Y185415D01*
X255394Y185419D01*
X241300Y185419D01*
X241182Y185404D01*
X241063Y185397D01*
X241025Y185384D01*
X240984Y185379D01*
X240874Y185336D01*
X240761Y185299D01*
X240726Y185277D01*
X240689Y185262D01*
X240593Y185193D01*
X240492Y185129D01*
X240464Y185099D01*
X240431Y185076D01*
X240356Y184984D01*
X240274Y184897D01*
X240254Y184862D01*
X240229Y184831D01*
X240178Y184723D01*
X240120Y184619D01*
X240110Y184579D01*
X240093Y184543D01*
X240071Y184426D01*
X240041Y184311D01*
X240037Y184251D01*
X240033Y184231D01*
X240034Y184219D01*
X240033Y184216D01*
X240034Y184203D01*
X240031Y184150D01*
X240031Y158750D01*
X240046Y158632D01*
X240053Y158513D01*
X240066Y158475D01*
X240071Y158434D01*
X240114Y158324D01*
X240151Y158211D01*
X240173Y158176D01*
X240188Y158139D01*
X240258Y158043D01*
X240321Y157942D01*
X240351Y157914D01*
X240374Y157881D01*
X240466Y157806D01*
X240553Y157724D01*
X240588Y157704D01*
X240619Y157679D01*
X240727Y157628D01*
X240831Y157570D01*
X240871Y157560D01*
X240907Y157543D01*
X241024Y157521D01*
X241139Y157491D01*
X241200Y157487D01*
X241220Y157483D01*
X241240Y157485D01*
X241300Y157481D01*
X255394Y157481D01*
X255512Y157496D01*
G37*
%LPC*%
G36*
X374857Y585336D02*
X374857Y585336D01*
X371636Y586670D01*
X369170Y589136D01*
X367836Y592357D01*
X367836Y595843D01*
X369170Y599064D01*
X371636Y601530D01*
X374857Y602864D01*
X378343Y602864D01*
X381564Y601530D01*
X384030Y599064D01*
X385364Y595843D01*
X385364Y592357D01*
X384030Y589136D01*
X381564Y586670D01*
X378343Y585336D01*
X374857Y585336D01*
G37*
%LPD*%
%LPC*%
G36*
X349457Y585336D02*
X349457Y585336D01*
X346236Y586670D01*
X343770Y589136D01*
X342436Y592357D01*
X342436Y595843D01*
X343770Y599064D01*
X346236Y601530D01*
X349457Y602864D01*
X352943Y602864D01*
X356164Y601530D01*
X358630Y599064D01*
X359964Y595843D01*
X359964Y592357D01*
X358630Y589136D01*
X356164Y586670D01*
X352943Y585336D01*
X349457Y585336D01*
G37*
%LPD*%
%LPC*%
G36*
X146257Y585336D02*
X146257Y585336D01*
X143036Y586670D01*
X140570Y589136D01*
X139236Y592357D01*
X139236Y595843D01*
X140570Y599064D01*
X143036Y601530D01*
X146257Y602864D01*
X149743Y602864D01*
X152964Y601530D01*
X155430Y599064D01*
X156764Y595843D01*
X156764Y592357D01*
X155430Y589136D01*
X152964Y586670D01*
X149743Y585336D01*
X146257Y585336D01*
G37*
%LPD*%
%LPC*%
G36*
X298657Y585336D02*
X298657Y585336D01*
X295436Y586670D01*
X292970Y589136D01*
X291636Y592357D01*
X291636Y595843D01*
X292970Y599064D01*
X295436Y601530D01*
X298657Y602864D01*
X302143Y602864D01*
X305364Y601530D01*
X307830Y599064D01*
X309164Y595843D01*
X309164Y592357D01*
X307830Y589136D01*
X305364Y586670D01*
X302143Y585336D01*
X298657Y585336D01*
G37*
%LPD*%
%LPC*%
G36*
X273257Y585336D02*
X273257Y585336D01*
X270036Y586670D01*
X267570Y589136D01*
X266236Y592357D01*
X266236Y595843D01*
X267570Y599064D01*
X270036Y601530D01*
X273257Y602864D01*
X276743Y602864D01*
X279964Y601530D01*
X282430Y599064D01*
X283764Y595843D01*
X283764Y592357D01*
X282430Y589136D01*
X279964Y586670D01*
X276743Y585336D01*
X273257Y585336D01*
G37*
%LPD*%
%LPC*%
G36*
X247857Y585336D02*
X247857Y585336D01*
X244636Y586670D01*
X242170Y589136D01*
X240836Y592357D01*
X240836Y595843D01*
X242170Y599064D01*
X244636Y601530D01*
X247857Y602864D01*
X251343Y602864D01*
X254564Y601530D01*
X257030Y599064D01*
X258364Y595843D01*
X258364Y592357D01*
X257030Y589136D01*
X254564Y586670D01*
X251343Y585336D01*
X247857Y585336D01*
G37*
%LPD*%
%LPC*%
G36*
X222457Y585336D02*
X222457Y585336D01*
X219236Y586670D01*
X216770Y589136D01*
X215436Y592357D01*
X215436Y595843D01*
X216770Y599064D01*
X219236Y601530D01*
X222457Y602864D01*
X225943Y602864D01*
X229164Y601530D01*
X231630Y599064D01*
X232964Y595843D01*
X232964Y592357D01*
X231630Y589136D01*
X229164Y586670D01*
X225943Y585336D01*
X222457Y585336D01*
G37*
%LPD*%
%LPC*%
G36*
X197057Y585336D02*
X197057Y585336D01*
X193836Y586670D01*
X191370Y589136D01*
X190036Y592357D01*
X190036Y595843D01*
X191370Y599064D01*
X193836Y601530D01*
X197057Y602864D01*
X200543Y602864D01*
X203764Y601530D01*
X206230Y599064D01*
X207564Y595843D01*
X207564Y592357D01*
X206230Y589136D01*
X203764Y586670D01*
X200543Y585336D01*
X197057Y585336D01*
G37*
%LPD*%
%LPC*%
G36*
X171657Y585336D02*
X171657Y585336D01*
X168436Y586670D01*
X165970Y589136D01*
X164636Y592357D01*
X164636Y595843D01*
X165970Y599064D01*
X168436Y601530D01*
X171657Y602864D01*
X175143Y602864D01*
X178364Y601530D01*
X180830Y599064D01*
X182164Y595843D01*
X182164Y592357D01*
X180830Y589136D01*
X178364Y586670D01*
X175143Y585336D01*
X171657Y585336D01*
G37*
%LPD*%
%LPC*%
G36*
X527257Y585336D02*
X527257Y585336D01*
X524036Y586670D01*
X521570Y589136D01*
X520236Y592357D01*
X520236Y595843D01*
X521570Y599064D01*
X524036Y601530D01*
X527257Y602864D01*
X530743Y602864D01*
X533964Y601530D01*
X536430Y599064D01*
X537764Y595843D01*
X537764Y592357D01*
X536430Y589136D01*
X533964Y586670D01*
X530743Y585336D01*
X527257Y585336D01*
G37*
%LPD*%
%LPC*%
G36*
X324057Y585336D02*
X324057Y585336D01*
X320836Y586670D01*
X318370Y589136D01*
X317036Y592357D01*
X317036Y595843D01*
X318370Y599064D01*
X320836Y601530D01*
X324057Y602864D01*
X327543Y602864D01*
X330764Y601530D01*
X333230Y599064D01*
X334564Y595843D01*
X334564Y592357D01*
X333230Y589136D01*
X330764Y586670D01*
X327543Y585336D01*
X324057Y585336D01*
G37*
%LPD*%
%LPC*%
G36*
X578057Y585336D02*
X578057Y585336D01*
X574836Y586670D01*
X572370Y589136D01*
X571036Y592357D01*
X571036Y595843D01*
X572370Y599064D01*
X574836Y601530D01*
X578057Y602864D01*
X581543Y602864D01*
X584764Y601530D01*
X587230Y599064D01*
X588564Y595843D01*
X588564Y592357D01*
X587230Y589136D01*
X584764Y586670D01*
X581543Y585336D01*
X578057Y585336D01*
G37*
%LPD*%
%LPC*%
G36*
X552657Y585336D02*
X552657Y585336D01*
X549436Y586670D01*
X546970Y589136D01*
X545636Y592357D01*
X545636Y595843D01*
X546970Y599064D01*
X549436Y601530D01*
X552657Y602864D01*
X556143Y602864D01*
X559364Y601530D01*
X561830Y599064D01*
X563164Y595843D01*
X563164Y592357D01*
X561830Y589136D01*
X559364Y586670D01*
X556143Y585336D01*
X552657Y585336D01*
G37*
%LPD*%
%LPC*%
G36*
X171657Y559936D02*
X171657Y559936D01*
X168436Y561270D01*
X165970Y563736D01*
X164636Y566957D01*
X164636Y570443D01*
X165970Y573664D01*
X168436Y576130D01*
X171657Y577464D01*
X175143Y577464D01*
X178364Y576130D01*
X180830Y573664D01*
X182164Y570443D01*
X182164Y566957D01*
X180830Y563736D01*
X178364Y561270D01*
X175143Y559936D01*
X171657Y559936D01*
G37*
%LPD*%
%LPC*%
G36*
X349457Y559936D02*
X349457Y559936D01*
X346236Y561270D01*
X343770Y563736D01*
X342436Y566957D01*
X342436Y570443D01*
X343770Y573664D01*
X346236Y576130D01*
X349457Y577464D01*
X352943Y577464D01*
X356164Y576130D01*
X358630Y573664D01*
X359964Y570443D01*
X359964Y566957D01*
X358630Y563736D01*
X356164Y561270D01*
X352943Y559936D01*
X349457Y559936D01*
G37*
%LPD*%
%LPC*%
G36*
X324057Y559936D02*
X324057Y559936D01*
X320836Y561270D01*
X318370Y563736D01*
X317036Y566957D01*
X317036Y570443D01*
X318370Y573664D01*
X320836Y576130D01*
X324057Y577464D01*
X327543Y577464D01*
X330764Y576130D01*
X333230Y573664D01*
X334564Y570443D01*
X334564Y566957D01*
X333230Y563736D01*
X330764Y561270D01*
X327543Y559936D01*
X324057Y559936D01*
G37*
%LPD*%
%LPC*%
G36*
X298657Y559936D02*
X298657Y559936D01*
X295436Y561270D01*
X292970Y563736D01*
X291636Y566957D01*
X291636Y570443D01*
X292970Y573664D01*
X295436Y576130D01*
X298657Y577464D01*
X302143Y577464D01*
X305364Y576130D01*
X307830Y573664D01*
X309164Y570443D01*
X309164Y566957D01*
X307830Y563736D01*
X305364Y561270D01*
X302143Y559936D01*
X298657Y559936D01*
G37*
%LPD*%
%LPC*%
G36*
X273257Y559936D02*
X273257Y559936D01*
X270036Y561270D01*
X267570Y563736D01*
X266236Y566957D01*
X266236Y570443D01*
X267570Y573664D01*
X270036Y576130D01*
X273257Y577464D01*
X276743Y577464D01*
X279964Y576130D01*
X282430Y573664D01*
X283764Y570443D01*
X283764Y566957D01*
X282430Y563736D01*
X279964Y561270D01*
X276743Y559936D01*
X273257Y559936D01*
G37*
%LPD*%
%LPC*%
G36*
X247857Y559936D02*
X247857Y559936D01*
X244636Y561270D01*
X242170Y563736D01*
X240836Y566957D01*
X240836Y570443D01*
X242170Y573664D01*
X244636Y576130D01*
X247857Y577464D01*
X251343Y577464D01*
X254564Y576130D01*
X257030Y573664D01*
X258364Y570443D01*
X258364Y566957D01*
X257030Y563736D01*
X254564Y561270D01*
X251343Y559936D01*
X247857Y559936D01*
G37*
%LPD*%
%LPC*%
G36*
X222457Y559936D02*
X222457Y559936D01*
X219236Y561270D01*
X216770Y563736D01*
X215436Y566957D01*
X215436Y570443D01*
X216770Y573664D01*
X219236Y576130D01*
X222457Y577464D01*
X225943Y577464D01*
X229164Y576130D01*
X231630Y573664D01*
X232964Y570443D01*
X232964Y566957D01*
X231630Y563736D01*
X229164Y561270D01*
X225943Y559936D01*
X222457Y559936D01*
G37*
%LPD*%
%LPC*%
G36*
X197057Y559936D02*
X197057Y559936D01*
X193836Y561270D01*
X191370Y563736D01*
X190036Y566957D01*
X190036Y570443D01*
X191370Y573664D01*
X193836Y576130D01*
X197057Y577464D01*
X200543Y577464D01*
X203764Y576130D01*
X206230Y573664D01*
X207564Y570443D01*
X207564Y566957D01*
X206230Y563736D01*
X203764Y561270D01*
X200543Y559936D01*
X197057Y559936D01*
G37*
%LPD*%
%LPC*%
G36*
X146257Y559936D02*
X146257Y559936D01*
X143036Y561270D01*
X140570Y563736D01*
X139236Y566957D01*
X139236Y570443D01*
X140570Y573664D01*
X143036Y576130D01*
X146257Y577464D01*
X149743Y577464D01*
X152964Y576130D01*
X155430Y573664D01*
X156764Y570443D01*
X156764Y566957D01*
X155430Y563736D01*
X152964Y561270D01*
X149743Y559936D01*
X146257Y559936D01*
G37*
%LPD*%
%LPC*%
G36*
X578057Y559936D02*
X578057Y559936D01*
X574836Y561270D01*
X572370Y563736D01*
X571036Y566957D01*
X571036Y570443D01*
X572370Y573664D01*
X574836Y576130D01*
X578057Y577464D01*
X581543Y577464D01*
X584764Y576130D01*
X587230Y573664D01*
X588564Y570443D01*
X588564Y566957D01*
X587230Y563736D01*
X584764Y561270D01*
X581543Y559936D01*
X578057Y559936D01*
G37*
%LPD*%
%LPC*%
G36*
X552657Y559936D02*
X552657Y559936D01*
X549436Y561270D01*
X546970Y563736D01*
X545636Y566957D01*
X545636Y570443D01*
X546970Y573664D01*
X549436Y576130D01*
X552657Y577464D01*
X556143Y577464D01*
X559364Y576130D01*
X561830Y573664D01*
X563164Y570443D01*
X563164Y566957D01*
X561830Y563736D01*
X559364Y561270D01*
X556143Y559936D01*
X552657Y559936D01*
G37*
%LPD*%
%LPC*%
G36*
X527257Y559936D02*
X527257Y559936D01*
X524036Y561270D01*
X521570Y563736D01*
X520236Y566957D01*
X520236Y570443D01*
X521570Y573664D01*
X524036Y576130D01*
X527257Y577464D01*
X530743Y577464D01*
X533964Y576130D01*
X536430Y573664D01*
X537764Y570443D01*
X537764Y566957D01*
X536430Y563736D01*
X533964Y561270D01*
X530743Y559936D01*
X527257Y559936D01*
G37*
%LPD*%
%LPC*%
G36*
X501857Y559936D02*
X501857Y559936D01*
X498636Y561270D01*
X496170Y563736D01*
X494836Y566957D01*
X494836Y570443D01*
X496170Y573664D01*
X498636Y576130D01*
X501857Y577464D01*
X505343Y577464D01*
X508564Y576130D01*
X511030Y573664D01*
X512364Y570443D01*
X512364Y566957D01*
X511030Y563736D01*
X508564Y561270D01*
X505343Y559936D01*
X501857Y559936D01*
G37*
%LPD*%
%LPC*%
G36*
X476457Y559936D02*
X476457Y559936D01*
X473236Y561270D01*
X470770Y563736D01*
X469436Y566957D01*
X469436Y570443D01*
X470770Y573664D01*
X473236Y576130D01*
X476457Y577464D01*
X479943Y577464D01*
X483164Y576130D01*
X485630Y573664D01*
X486964Y570443D01*
X486964Y566957D01*
X485630Y563736D01*
X483164Y561270D01*
X479943Y559936D01*
X476457Y559936D01*
G37*
%LPD*%
%LPC*%
G36*
X451057Y559936D02*
X451057Y559936D01*
X447836Y561270D01*
X445370Y563736D01*
X444036Y566957D01*
X444036Y570443D01*
X445370Y573664D01*
X447836Y576130D01*
X451057Y577464D01*
X454543Y577464D01*
X457764Y576130D01*
X460230Y573664D01*
X461564Y570443D01*
X461564Y566957D01*
X460230Y563736D01*
X457764Y561270D01*
X454543Y559936D01*
X451057Y559936D01*
G37*
%LPD*%
%LPC*%
G36*
X400257Y559936D02*
X400257Y559936D01*
X397036Y561270D01*
X394570Y563736D01*
X393236Y566957D01*
X393236Y570443D01*
X394570Y573664D01*
X397036Y576130D01*
X400257Y577464D01*
X403743Y577464D01*
X406964Y576130D01*
X409430Y573664D01*
X410764Y570443D01*
X410764Y566957D01*
X409430Y563736D01*
X406964Y561270D01*
X403743Y559936D01*
X400257Y559936D01*
G37*
%LPD*%
%LPC*%
G36*
X374857Y559936D02*
X374857Y559936D01*
X371636Y561270D01*
X369170Y563736D01*
X367836Y566957D01*
X367836Y570443D01*
X369170Y573664D01*
X371636Y576130D01*
X374857Y577464D01*
X378343Y577464D01*
X381564Y576130D01*
X384030Y573664D01*
X385364Y570443D01*
X385364Y566957D01*
X384030Y563736D01*
X381564Y561270D01*
X378343Y559936D01*
X374857Y559936D01*
G37*
%LPD*%
%LPC*%
G36*
X400257Y585336D02*
X400257Y585336D01*
X397036Y586670D01*
X394570Y589136D01*
X393236Y592357D01*
X393236Y595843D01*
X394570Y599064D01*
X397036Y601530D01*
X400257Y602864D01*
X403743Y602864D01*
X406964Y601530D01*
X409430Y599064D01*
X410764Y595843D01*
X410764Y592357D01*
X409430Y589136D01*
X406964Y586670D01*
X403743Y585336D01*
X400257Y585336D01*
G37*
%LPD*%
%LPC*%
G36*
X501857Y585336D02*
X501857Y585336D01*
X498636Y586670D01*
X496170Y589136D01*
X494836Y592357D01*
X494836Y595843D01*
X496170Y599064D01*
X498636Y601530D01*
X501857Y602864D01*
X505343Y602864D01*
X508564Y601530D01*
X511030Y599064D01*
X512364Y595843D01*
X512364Y592357D01*
X511030Y589136D01*
X508564Y586670D01*
X505343Y585336D01*
X501857Y585336D01*
G37*
%LPD*%
%LPC*%
G36*
X552657Y305936D02*
X552657Y305936D01*
X549436Y307270D01*
X546970Y309736D01*
X545636Y312957D01*
X545636Y316443D01*
X546970Y319664D01*
X549436Y322130D01*
X552657Y323464D01*
X556143Y323464D01*
X559364Y322130D01*
X561830Y319664D01*
X563164Y316443D01*
X563164Y312957D01*
X561830Y309736D01*
X559364Y307270D01*
X556143Y305936D01*
X552657Y305936D01*
G37*
%LPD*%
%LPC*%
G36*
X578057Y305936D02*
X578057Y305936D01*
X574836Y307270D01*
X572370Y309736D01*
X571036Y312957D01*
X571036Y316443D01*
X572370Y319664D01*
X574836Y322130D01*
X578057Y323464D01*
X581543Y323464D01*
X584764Y322130D01*
X587230Y319664D01*
X588564Y316443D01*
X588564Y312957D01*
X587230Y309736D01*
X584764Y307270D01*
X581543Y305936D01*
X578057Y305936D01*
G37*
%LPD*%
%LPC*%
G36*
X451057Y585336D02*
X451057Y585336D01*
X447836Y586670D01*
X445370Y589136D01*
X444036Y592357D01*
X444036Y595843D01*
X445370Y599064D01*
X447836Y601530D01*
X451057Y602864D01*
X454543Y602864D01*
X457764Y601530D01*
X460230Y599064D01*
X461564Y595843D01*
X461564Y592357D01*
X460230Y589136D01*
X457764Y586670D01*
X454543Y585336D01*
X451057Y585336D01*
G37*
%LPD*%
%LPC*%
G36*
X425657Y585336D02*
X425657Y585336D01*
X422436Y586670D01*
X419970Y589136D01*
X418636Y592357D01*
X418636Y595843D01*
X419970Y599064D01*
X422436Y601530D01*
X425657Y602864D01*
X429143Y602864D01*
X432364Y601530D01*
X434830Y599064D01*
X436164Y595843D01*
X436164Y592357D01*
X434830Y589136D01*
X432364Y586670D01*
X429143Y585336D01*
X425657Y585336D01*
G37*
%LPD*%
%LPC*%
G36*
X374857Y331336D02*
X374857Y331336D01*
X371636Y332670D01*
X369170Y335136D01*
X367836Y338357D01*
X367836Y341843D01*
X369170Y345064D01*
X371636Y347530D01*
X374857Y348864D01*
X378343Y348864D01*
X381564Y347530D01*
X384030Y345064D01*
X385364Y341843D01*
X385364Y338357D01*
X384030Y335136D01*
X381564Y332670D01*
X378343Y331336D01*
X374857Y331336D01*
G37*
%LPD*%
%LPC*%
G36*
X146257Y331336D02*
X146257Y331336D01*
X143036Y332670D01*
X140570Y335136D01*
X139236Y338357D01*
X139236Y341843D01*
X140570Y345064D01*
X143036Y347530D01*
X146257Y348864D01*
X149743Y348864D01*
X152964Y347530D01*
X155430Y345064D01*
X156764Y341843D01*
X156764Y338357D01*
X155430Y335136D01*
X152964Y332670D01*
X149743Y331336D01*
X146257Y331336D01*
G37*
%LPD*%
%LPC*%
G36*
X349457Y331336D02*
X349457Y331336D01*
X346236Y332670D01*
X343770Y335136D01*
X342436Y338357D01*
X342436Y341843D01*
X343770Y345064D01*
X346236Y347530D01*
X349457Y348864D01*
X352943Y348864D01*
X356164Y347530D01*
X358630Y345064D01*
X359964Y341843D01*
X359964Y338357D01*
X358630Y335136D01*
X356164Y332670D01*
X352943Y331336D01*
X349457Y331336D01*
G37*
%LPD*%
%LPC*%
G36*
X324057Y331336D02*
X324057Y331336D01*
X320836Y332670D01*
X318370Y335136D01*
X317036Y338357D01*
X317036Y341843D01*
X318370Y345064D01*
X320836Y347530D01*
X324057Y348864D01*
X327543Y348864D01*
X330764Y347530D01*
X333230Y345064D01*
X334564Y341843D01*
X334564Y338357D01*
X333230Y335136D01*
X330764Y332670D01*
X327543Y331336D01*
X324057Y331336D01*
G37*
%LPD*%
%LPC*%
G36*
X476457Y331336D02*
X476457Y331336D01*
X473236Y332670D01*
X470770Y335136D01*
X469436Y338357D01*
X469436Y341843D01*
X470770Y345064D01*
X473236Y347530D01*
X476457Y348864D01*
X479943Y348864D01*
X483164Y347530D01*
X485630Y345064D01*
X486964Y341843D01*
X486964Y338357D01*
X485630Y335136D01*
X483164Y332670D01*
X479943Y331336D01*
X476457Y331336D01*
G37*
%LPD*%
%LPC*%
G36*
X273257Y331336D02*
X273257Y331336D01*
X270036Y332670D01*
X267570Y335136D01*
X266236Y338357D01*
X266236Y341843D01*
X267570Y345064D01*
X270036Y347530D01*
X273257Y348864D01*
X276743Y348864D01*
X279964Y347530D01*
X282430Y345064D01*
X283764Y341843D01*
X283764Y338357D01*
X282430Y335136D01*
X279964Y332670D01*
X276743Y331336D01*
X273257Y331336D01*
G37*
%LPD*%
%LPC*%
G36*
X527257Y331336D02*
X527257Y331336D01*
X524036Y332670D01*
X521570Y335136D01*
X520236Y338357D01*
X520236Y341843D01*
X521570Y345064D01*
X524036Y347530D01*
X527257Y348864D01*
X530743Y348864D01*
X533964Y347530D01*
X536430Y345064D01*
X537764Y341843D01*
X537764Y338357D01*
X536430Y335136D01*
X533964Y332670D01*
X530743Y331336D01*
X527257Y331336D01*
G37*
%LPD*%
%LPC*%
G36*
X552657Y331336D02*
X552657Y331336D01*
X549436Y332670D01*
X546970Y335136D01*
X545636Y338357D01*
X545636Y341843D01*
X546970Y345064D01*
X549436Y347530D01*
X552657Y348864D01*
X556143Y348864D01*
X559364Y347530D01*
X561830Y345064D01*
X563164Y341843D01*
X563164Y338357D01*
X561830Y335136D01*
X559364Y332670D01*
X556143Y331336D01*
X552657Y331336D01*
G37*
%LPD*%
%LPC*%
G36*
X578057Y331336D02*
X578057Y331336D01*
X574836Y332670D01*
X572370Y335136D01*
X571036Y338357D01*
X571036Y341843D01*
X572370Y345064D01*
X574836Y347530D01*
X578057Y348864D01*
X581543Y348864D01*
X584764Y347530D01*
X587230Y345064D01*
X588564Y341843D01*
X588564Y338357D01*
X587230Y335136D01*
X584764Y332670D01*
X581543Y331336D01*
X578057Y331336D01*
G37*
%LPD*%
%LPC*%
G36*
X197057Y331336D02*
X197057Y331336D01*
X193836Y332670D01*
X191370Y335136D01*
X190036Y338357D01*
X190036Y341843D01*
X191370Y345064D01*
X193836Y347530D01*
X197057Y348864D01*
X200543Y348864D01*
X203764Y347530D01*
X206230Y345064D01*
X207564Y341843D01*
X207564Y338357D01*
X206230Y335136D01*
X203764Y332670D01*
X200543Y331336D01*
X197057Y331336D01*
G37*
%LPD*%
%LPC*%
G36*
X247857Y331336D02*
X247857Y331336D01*
X244636Y332670D01*
X242170Y335136D01*
X240836Y338357D01*
X240836Y341843D01*
X242170Y345064D01*
X244636Y347530D01*
X247857Y348864D01*
X251343Y348864D01*
X254564Y347530D01*
X257030Y345064D01*
X258364Y341843D01*
X258364Y338357D01*
X257030Y335136D01*
X254564Y332670D01*
X251343Y331336D01*
X247857Y331336D01*
G37*
%LPD*%
%LPC*%
G36*
X222457Y331336D02*
X222457Y331336D01*
X219236Y332670D01*
X216770Y335136D01*
X215436Y338357D01*
X215436Y341843D01*
X216770Y345064D01*
X219236Y347530D01*
X222457Y348864D01*
X225943Y348864D01*
X229164Y347530D01*
X231630Y345064D01*
X232964Y341843D01*
X232964Y338357D01*
X231630Y335136D01*
X229164Y332670D01*
X225943Y331336D01*
X222457Y331336D01*
G37*
%LPD*%
%LPC*%
G36*
X171657Y331336D02*
X171657Y331336D01*
X168436Y332670D01*
X165970Y335136D01*
X164636Y338357D01*
X164636Y341843D01*
X165970Y345064D01*
X168436Y347530D01*
X171657Y348864D01*
X175143Y348864D01*
X178364Y347530D01*
X180830Y345064D01*
X182164Y341843D01*
X182164Y338357D01*
X180830Y335136D01*
X178364Y332670D01*
X175143Y331336D01*
X171657Y331336D01*
G37*
%LPD*%
%LPC*%
G36*
X501857Y331336D02*
X501857Y331336D01*
X498636Y332670D01*
X496170Y335136D01*
X494836Y338357D01*
X494836Y341843D01*
X496170Y345064D01*
X498636Y347530D01*
X501857Y348864D01*
X505343Y348864D01*
X508564Y347530D01*
X511030Y345064D01*
X512364Y341843D01*
X512364Y338357D01*
X511030Y335136D01*
X508564Y332670D01*
X505343Y331336D01*
X501857Y331336D01*
G37*
%LPD*%
%LPC*%
G36*
X476457Y585336D02*
X476457Y585336D01*
X473236Y586670D01*
X470770Y589136D01*
X469436Y592357D01*
X469436Y595843D01*
X470770Y599064D01*
X473236Y601530D01*
X476457Y602864D01*
X479943Y602864D01*
X483164Y601530D01*
X485630Y599064D01*
X486964Y595843D01*
X486964Y592357D01*
X485630Y589136D01*
X483164Y586670D01*
X479943Y585336D01*
X476457Y585336D01*
G37*
%LPD*%
%LPC*%
G36*
X222457Y305936D02*
X222457Y305936D01*
X219236Y307270D01*
X216770Y309736D01*
X215436Y312957D01*
X215436Y316443D01*
X216770Y319664D01*
X219236Y322130D01*
X222457Y323464D01*
X225943Y323464D01*
X229164Y322130D01*
X231630Y319664D01*
X232964Y316443D01*
X232964Y312957D01*
X231630Y309736D01*
X229164Y307270D01*
X225943Y305936D01*
X222457Y305936D01*
G37*
%LPD*%
%LPC*%
G36*
X374857Y305936D02*
X374857Y305936D01*
X371636Y307270D01*
X369170Y309736D01*
X367836Y312957D01*
X367836Y316443D01*
X369170Y319664D01*
X371636Y322130D01*
X374857Y323464D01*
X378343Y323464D01*
X381564Y322130D01*
X384030Y319664D01*
X385364Y316443D01*
X385364Y312957D01*
X384030Y309736D01*
X381564Y307270D01*
X378343Y305936D01*
X374857Y305936D01*
G37*
%LPD*%
%LPC*%
G36*
X476457Y305936D02*
X476457Y305936D01*
X473236Y307270D01*
X470770Y309736D01*
X469436Y312957D01*
X469436Y316443D01*
X470770Y319664D01*
X473236Y322130D01*
X476457Y323464D01*
X479943Y323464D01*
X483164Y322130D01*
X485630Y319664D01*
X486964Y316443D01*
X486964Y312957D01*
X485630Y309736D01*
X483164Y307270D01*
X479943Y305936D01*
X476457Y305936D01*
G37*
%LPD*%
%LPC*%
G36*
X501857Y305936D02*
X501857Y305936D01*
X498636Y307270D01*
X496170Y309736D01*
X494836Y312957D01*
X494836Y316443D01*
X496170Y319664D01*
X498636Y322130D01*
X501857Y323464D01*
X505343Y323464D01*
X508564Y322130D01*
X511030Y319664D01*
X512364Y316443D01*
X512364Y312957D01*
X511030Y309736D01*
X508564Y307270D01*
X505343Y305936D01*
X501857Y305936D01*
G37*
%LPD*%
%LPC*%
G36*
X527257Y305936D02*
X527257Y305936D01*
X524036Y307270D01*
X521570Y309736D01*
X520236Y312957D01*
X520236Y316443D01*
X521570Y319664D01*
X524036Y322130D01*
X527257Y323464D01*
X530743Y323464D01*
X533964Y322130D01*
X536430Y319664D01*
X537764Y316443D01*
X537764Y312957D01*
X536430Y309736D01*
X533964Y307270D01*
X530743Y305936D01*
X527257Y305936D01*
G37*
%LPD*%
%LPC*%
G36*
X247857Y305936D02*
X247857Y305936D01*
X244636Y307270D01*
X242170Y309736D01*
X240836Y312957D01*
X240836Y316443D01*
X242170Y319664D01*
X244636Y322130D01*
X247857Y323464D01*
X251343Y323464D01*
X254564Y322130D01*
X257030Y319664D01*
X258364Y316443D01*
X258364Y312957D01*
X257030Y309736D01*
X254564Y307270D01*
X251343Y305936D01*
X247857Y305936D01*
G37*
%LPD*%
%LPC*%
G36*
X273257Y305936D02*
X273257Y305936D01*
X270036Y307270D01*
X267570Y309736D01*
X266236Y312957D01*
X266236Y316443D01*
X267570Y319664D01*
X270036Y322130D01*
X273257Y323464D01*
X276743Y323464D01*
X279964Y322130D01*
X282430Y319664D01*
X283764Y316443D01*
X283764Y312957D01*
X282430Y309736D01*
X279964Y307270D01*
X276743Y305936D01*
X273257Y305936D01*
G37*
%LPD*%
%LPC*%
G36*
X298657Y305936D02*
X298657Y305936D01*
X295436Y307270D01*
X292970Y309736D01*
X291636Y312957D01*
X291636Y316443D01*
X292970Y319664D01*
X295436Y322130D01*
X298657Y323464D01*
X302143Y323464D01*
X305364Y322130D01*
X307830Y319664D01*
X309164Y316443D01*
X309164Y312957D01*
X307830Y309736D01*
X305364Y307270D01*
X302143Y305936D01*
X298657Y305936D01*
G37*
%LPD*%
%LPC*%
G36*
X324057Y305936D02*
X324057Y305936D01*
X320836Y307270D01*
X318370Y309736D01*
X317036Y312957D01*
X317036Y316443D01*
X318370Y319664D01*
X320836Y322130D01*
X324057Y323464D01*
X327543Y323464D01*
X330764Y322130D01*
X333230Y319664D01*
X334564Y316443D01*
X334564Y312957D01*
X333230Y309736D01*
X330764Y307270D01*
X327543Y305936D01*
X324057Y305936D01*
G37*
%LPD*%
%LPC*%
G36*
X425657Y305936D02*
X425657Y305936D01*
X422436Y307270D01*
X419970Y309736D01*
X418636Y312957D01*
X418636Y316443D01*
X419970Y319664D01*
X422436Y322130D01*
X425657Y323464D01*
X429143Y323464D01*
X432364Y322130D01*
X434830Y319664D01*
X436164Y316443D01*
X436164Y312957D01*
X434830Y309736D01*
X432364Y307270D01*
X429143Y305936D01*
X425657Y305936D01*
G37*
%LPD*%
%LPC*%
G36*
X349457Y305936D02*
X349457Y305936D01*
X346236Y307270D01*
X343770Y309736D01*
X342436Y312957D01*
X342436Y316443D01*
X343770Y319664D01*
X346236Y322130D01*
X349457Y323464D01*
X352943Y323464D01*
X356164Y322130D01*
X358630Y319664D01*
X359964Y316443D01*
X359964Y312957D01*
X358630Y309736D01*
X356164Y307270D01*
X352943Y305936D01*
X349457Y305936D01*
G37*
%LPD*%
%LPC*%
G36*
X197057Y305936D02*
X197057Y305936D01*
X193836Y307270D01*
X191370Y309736D01*
X190036Y312957D01*
X190036Y316443D01*
X191370Y319664D01*
X193836Y322130D01*
X197057Y323464D01*
X200543Y323464D01*
X203764Y322130D01*
X206230Y319664D01*
X207564Y316443D01*
X207564Y312957D01*
X206230Y309736D01*
X203764Y307270D01*
X200543Y305936D01*
X197057Y305936D01*
G37*
%LPD*%
%LPC*%
G36*
X171657Y305936D02*
X171657Y305936D01*
X168436Y307270D01*
X165970Y309736D01*
X164636Y312957D01*
X164636Y316443D01*
X165970Y319664D01*
X168436Y322130D01*
X171657Y323464D01*
X175143Y323464D01*
X178364Y322130D01*
X180830Y319664D01*
X182164Y316443D01*
X182164Y312957D01*
X180830Y309736D01*
X178364Y307270D01*
X175143Y305936D01*
X171657Y305936D01*
G37*
%LPD*%
%LPC*%
G36*
X146257Y305936D02*
X146257Y305936D01*
X143036Y307270D01*
X140570Y309736D01*
X139236Y312957D01*
X139236Y316443D01*
X140570Y319664D01*
X143036Y322130D01*
X146257Y323464D01*
X149743Y323464D01*
X152964Y322130D01*
X155430Y319664D01*
X156764Y316443D01*
X156764Y312957D01*
X155430Y309736D01*
X152964Y307270D01*
X149743Y305936D01*
X146257Y305936D01*
G37*
%LPD*%
%LPC*%
G36*
X661828Y757681D02*
X661828Y757681D01*
X659774Y758532D01*
X658202Y760104D01*
X657351Y762158D01*
X657351Y764382D01*
X658202Y766436D01*
X659774Y768008D01*
X661828Y768859D01*
X664052Y768859D01*
X666106Y768008D01*
X667678Y766436D01*
X668529Y764382D01*
X668529Y762158D01*
X667678Y760104D01*
X666106Y758532D01*
X664052Y757681D01*
X661828Y757681D01*
G37*
%LPD*%
%LPC*%
G36*
X481488Y146811D02*
X481488Y146811D01*
X479434Y147662D01*
X477862Y149234D01*
X477011Y151288D01*
X477011Y153512D01*
X477862Y155566D01*
X479434Y157138D01*
X481488Y157989D01*
X483712Y157989D01*
X485766Y157138D01*
X487338Y155566D01*
X488189Y153512D01*
X488189Y151288D01*
X487338Y149234D01*
X485766Y147662D01*
X483712Y146811D01*
X481488Y146811D01*
G37*
%LPD*%
%LPC*%
G36*
X227488Y121411D02*
X227488Y121411D01*
X225434Y122262D01*
X223862Y123834D01*
X223011Y125888D01*
X223011Y128112D01*
X223862Y130166D01*
X225434Y131738D01*
X227488Y132589D01*
X229712Y132589D01*
X231766Y131738D01*
X233338Y130166D01*
X234189Y128112D01*
X234189Y125888D01*
X233338Y123834D01*
X231766Y122262D01*
X229712Y121411D01*
X227488Y121411D01*
G37*
%LPD*%
%LPC*%
G36*
X429622Y570922D02*
X429622Y570922D01*
X429622Y577193D01*
X429956Y577127D01*
X431551Y576466D01*
X432987Y575507D01*
X434207Y574287D01*
X435166Y572851D01*
X435827Y571256D01*
X435893Y570922D01*
X429622Y570922D01*
G37*
%LPD*%
%LPC*%
G36*
X302622Y342322D02*
X302622Y342322D01*
X302622Y348593D01*
X302956Y348527D01*
X304551Y347866D01*
X305987Y346907D01*
X307207Y345687D01*
X308166Y344251D01*
X308827Y342656D01*
X308893Y342322D01*
X302622Y342322D01*
G37*
%LPD*%
%LPC*%
G36*
X429622Y566478D02*
X429622Y566478D01*
X435893Y566478D01*
X435827Y566144D01*
X435166Y564549D01*
X434207Y563113D01*
X432987Y561893D01*
X431551Y560934D01*
X429956Y560273D01*
X429622Y560207D01*
X429622Y566478D01*
G37*
%LPD*%
%LPC*%
G36*
X302622Y337878D02*
X302622Y337878D01*
X308893Y337878D01*
X308827Y337544D01*
X308166Y335949D01*
X307207Y334513D01*
X305987Y333293D01*
X304551Y332334D01*
X302956Y331673D01*
X302622Y331607D01*
X302622Y337878D01*
G37*
%LPD*%
%LPC*%
G36*
X291907Y342322D02*
X291907Y342322D01*
X291973Y342656D01*
X292634Y344251D01*
X293593Y345687D01*
X294813Y346907D01*
X296249Y347866D01*
X297844Y348527D01*
X298178Y348593D01*
X298178Y342322D01*
X291907Y342322D01*
G37*
%LPD*%
%LPC*%
G36*
X418907Y570922D02*
X418907Y570922D01*
X418973Y571256D01*
X419634Y572851D01*
X420593Y574287D01*
X421813Y575507D01*
X423249Y576466D01*
X424844Y577127D01*
X425178Y577193D01*
X425178Y570922D01*
X418907Y570922D01*
G37*
%LPD*%
%LPC*%
G36*
X429622Y337878D02*
X429622Y337878D01*
X435893Y337878D01*
X435827Y337544D01*
X435166Y335949D01*
X434207Y334513D01*
X432987Y333293D01*
X431551Y332334D01*
X429956Y331673D01*
X429622Y331607D01*
X429622Y337878D01*
G37*
%LPD*%
%LPC*%
G36*
X424844Y560273D02*
X424844Y560273D01*
X423249Y560934D01*
X421813Y561893D01*
X420593Y563113D01*
X419634Y564549D01*
X418973Y566144D01*
X418907Y566478D01*
X425178Y566478D01*
X425178Y560207D01*
X424844Y560273D01*
G37*
%LPD*%
%LPC*%
G36*
X297844Y331673D02*
X297844Y331673D01*
X296249Y332334D01*
X294813Y333293D01*
X293593Y334513D01*
X292634Y335949D01*
X291973Y337544D01*
X291907Y337878D01*
X298178Y337878D01*
X298178Y331607D01*
X297844Y331673D01*
G37*
%LPD*%
%LPC*%
G36*
X424844Y331673D02*
X424844Y331673D01*
X423249Y332334D01*
X421813Y333293D01*
X420593Y334513D01*
X419634Y335949D01*
X418973Y337544D01*
X418907Y337878D01*
X425178Y337878D01*
X425178Y331607D01*
X424844Y331673D01*
G37*
%LPD*%
D10*
X148000Y314700D03*
X148000Y340100D03*
X173400Y314700D03*
X173400Y340100D03*
X198800Y314700D03*
X198800Y340100D03*
X224200Y314700D03*
X224200Y340100D03*
X249600Y314700D03*
X249600Y340100D03*
X275000Y314700D03*
X275000Y340100D03*
X300400Y314700D03*
X300400Y340100D03*
X325800Y314700D03*
X325800Y340100D03*
X351200Y314700D03*
X351200Y340100D03*
X376600Y314700D03*
X376600Y340100D03*
X402000Y314700D03*
X402000Y340100D03*
X427400Y314700D03*
X427400Y340100D03*
X452800Y314700D03*
X452800Y340100D03*
X478200Y314700D03*
X478200Y340100D03*
X503600Y314700D03*
X503600Y340100D03*
X529000Y314700D03*
X529000Y340100D03*
X554400Y314700D03*
X554400Y340100D03*
X579800Y314700D03*
X579800Y340100D03*
X148000Y568700D03*
X148000Y594100D03*
X173400Y568700D03*
X173400Y594100D03*
X198800Y568700D03*
X198800Y594100D03*
X224200Y568700D03*
X224200Y594100D03*
X249600Y568700D03*
X249600Y594100D03*
X275000Y568700D03*
X275000Y594100D03*
X300400Y568700D03*
X300400Y594100D03*
X325800Y568700D03*
X325800Y594100D03*
X351200Y568700D03*
X351200Y594100D03*
X376600Y568700D03*
X376600Y594100D03*
X402000Y568700D03*
X402000Y594100D03*
X427400Y568700D03*
X427400Y594100D03*
X452800Y568700D03*
X452800Y594100D03*
X478200Y568700D03*
X478200Y594100D03*
X503600Y568700D03*
X503600Y594100D03*
X529000Y568700D03*
X529000Y594100D03*
X554400Y568700D03*
X554400Y594100D03*
X579800Y568700D03*
X579800Y594100D03*
D11*
X291100Y812400D03*
X291100Y762400D03*
X166100Y762400D03*
X166100Y812400D03*
X260350Y196850D03*
X260350Y171450D03*
X260350Y222250D03*
X558800Y152400D03*
X558800Y177800D03*
X569230Y814940D03*
X569230Y764940D03*
X444230Y764940D03*
X444230Y814940D03*
D12*
X50800Y50800D03*
X50800Y914400D03*
X685800Y914400D03*
X685800Y50800D03*
D13*
X662940Y763270D03*
X482600Y152400D03*
X228600Y127000D03*
M02*
