G04 EAGLE Gerber RS-274X export*
G75*
%MOMM*%
%FSLAX34Y34*%
%LPD*%
%INSoldermask Bottom*%
%IPPOS*%
%AMOC8*
5,1,8,0,0,1.08239X$1,22.5*%
G01*
%ADD10R,1.676400X1.676400*%
%ADD11P,1.814519X8X22.500000*%
%ADD12C,2.112400*%
%ADD13C,4.597400*%


D10*
X148000Y314700D03*
D11*
X148000Y340100D03*
X173400Y314700D03*
X173400Y340100D03*
X198800Y314700D03*
X198800Y340100D03*
X224200Y314700D03*
X224200Y340100D03*
X249600Y314700D03*
X249600Y340100D03*
X275000Y314700D03*
X275000Y340100D03*
X300400Y314700D03*
X300400Y340100D03*
X325800Y314700D03*
X325800Y340100D03*
X351200Y314700D03*
X351200Y340100D03*
X376600Y314700D03*
X376600Y340100D03*
X402000Y314700D03*
X402000Y340100D03*
X427400Y314700D03*
X427400Y340100D03*
X452800Y314700D03*
X452800Y340100D03*
X478200Y314700D03*
X478200Y340100D03*
X503600Y314700D03*
X503600Y340100D03*
X529000Y314700D03*
X529000Y340100D03*
X554400Y314700D03*
X554400Y340100D03*
X579800Y314700D03*
X579800Y340100D03*
D10*
X148000Y568700D03*
D11*
X148000Y594100D03*
X173400Y568700D03*
X173400Y594100D03*
X198800Y568700D03*
X198800Y594100D03*
X224200Y568700D03*
X224200Y594100D03*
X249600Y568700D03*
X249600Y594100D03*
X275000Y568700D03*
X275000Y594100D03*
X300400Y568700D03*
X300400Y594100D03*
X325800Y568700D03*
X325800Y594100D03*
X351200Y568700D03*
X351200Y594100D03*
X376600Y568700D03*
X376600Y594100D03*
X402000Y568700D03*
X402000Y594100D03*
X427400Y568700D03*
X427400Y594100D03*
X452800Y568700D03*
X452800Y594100D03*
X478200Y568700D03*
X478200Y594100D03*
X503600Y568700D03*
X503600Y594100D03*
X529000Y568700D03*
X529000Y594100D03*
X554400Y568700D03*
X554400Y594100D03*
X579800Y568700D03*
X579800Y594100D03*
D12*
X291100Y812400D03*
X291100Y762400D03*
X166100Y762400D03*
X166100Y812400D03*
X260350Y196850D03*
X260350Y171450D03*
X260350Y222250D03*
X558800Y152400D03*
X558800Y177800D03*
X569230Y814940D03*
X569230Y764940D03*
X444230Y764940D03*
X444230Y814940D03*
D13*
X50800Y50800D03*
X50800Y914400D03*
X685800Y914400D03*
X685800Y50800D03*
M02*
